<?xml version="1.0" encoding="utf-8"?>
<!-- Generator: Adobe Illustrator 19.1.0, SVG Export Plug-In . SVG Version: 6.00 Build 0)  -->
<svg version="1.1" id="Layer_1" xmlns="http://www.w3.org/2000/svg" xmlns:xlink="http://www.w3.org/1999/xlink" x="0px" y="0px"
	 viewBox="-887 889 24 24" style="enable-background:new -887 889 24 24;" xml:space="preserve">
<style type="text/css">
	.st0{fill:#FFFFFF;}
</style>
<path class="st0" d="M-870.5,907c-0.2,0-0.4-0.1-0.6-0.2c-0.3-0.3-0.3-0.8,0-1.1l3.9-3.9l-3.9-3.9c-0.3-0.3-0.3-0.8,0-1.1
	s0.8-0.3,1.1,0l4.4,4.4c0.2,0.2,0.2,0.4,0.2,0.6c0,0.2-0.1,0.4-0.2,0.6l-4.5,4.5C-870.1,906.9-870.3,907-870.5,907z"/>
<path class="st0" d="M-879.4,907c-0.2,0-0.4-0.1-0.6-0.2l-4.5-4.5c-0.2-0.2-0.2-0.4-0.2-0.6c0-0.2,0.1-0.4,0.2-0.6l4.4-4.4
	c0.3-0.3,0.8-0.3,1.1,0s0.3,0.8,0,1.1l-3.9,3.9l3.9,3.9c0.3,0.3,0.3,0.8,0,1.1C-878.9,906.9-879.2,907-879.4,907z"/>
<path class="st0" d="M-876.7,908.9c-0.1,0-0.1,0-0.2,0c-0.4-0.1-0.7-0.6-0.6-1l3.6-13c0.1-0.4,0.6-0.7,1-0.6c0.4,0.1,0.7,0.6,0.6,1
	l-3.6,13C-876,908.7-876.4,908.9-876.7,908.9z"/>
</svg>
