<?xml version="1.0" encoding="utf-8"?>
<!-- Generator: Adobe Illustrator 19.1.0, SVG Export Plug-In . SVG Version: 6.00 Build 0)  -->
<svg version="1.1" id="Layer_1" xmlns="http://www.w3.org/2000/svg" xmlns:xlink="http://www.w3.org/1999/xlink" x="0px" y="0px"
	 viewBox="-887 889 24 24" style="enable-background:new -887 889 24 24;" xml:space="preserve">
<style type="text/css">
	.st0{fill:#FFFFFF;}
</style>
<path class="st0" d="M-881.3,909.2c-0.3,0-0.6-0.1-0.9-0.4c-0.5-0.5-0.5-1.3,0-1.8l6.1-6.1l-6-6c-0.5-0.5-0.5-1.3,0-1.8
	s1.3-0.5,1.8,0l6.9,6.9c0.2,0.2,0.4,0.6,0.4,0.9c0,0.3-0.1,0.7-0.4,0.9l-7,7C-880.7,909.1-881,909.2-881.3,909.2z"/>
<path class="st0" d="M-874.4,909.2c-0.3,0-0.6-0.1-0.9-0.4c-0.5-0.5-0.5-1.3,0-1.8l6.1-6.1l-6-6c-0.5-0.5-0.5-1.3,0-1.8
	s1.3-0.5,1.8,0l6.9,6.9c0.2,0.2,0.4,0.6,0.4,0.9c0,0.3-0.1,0.7-0.4,0.9l-7,7C-873.7,909.1-874,909.2-874.4,909.2z"/>
</svg>
