<?xml version="1.0" encoding="utf-8"?>
<!-- Generator: Adobe Illustrator 19.1.0, SVG Export Plug-In . SVG Version: 6.00 Build 0)  -->
<svg version="1.1" id="Layer_1" xmlns="http://www.w3.org/2000/svg" xmlns:xlink="http://www.w3.org/1999/xlink" x="0px" y="0px"
	 viewBox="-887 889 24 24" style="enable-background:new -887 889 24 24;" xml:space="preserve">
<style type="text/css">
	.st0{fill:#FFFFFF;}
</style>
<g>
	<polygon class="st0" points="-882,902.5 -882,909.5 -876.5,909.5 -876.5,905.1 -872.6,905.1 -872.6,909.5 -867.4,909.5 
		-867.4,902.5 -874.6,896.5 	"/>
	<path class="st0" d="M-864.9,900.5l-2.2-1.8v-5.5h-3.4v2.7l-3.5-2.9c-0.4-0.3-0.9-0.3-1.2,0l-9.1,7.4c-0.4,0.3-0.5,1-0.1,1.4
		c0.3,0.4,1,0.5,1.4,0.1l8.5-6.9l8.6,6.9c0.2,0.1,0.4,0.2,0.6,0.2c0.3,0,0.6-0.1,0.8-0.4C-864.4,901.5-864.5,900.8-864.9,900.5z"/>
</g>
</svg>
