<?xml version="1.0" standalone="no"?>
<!DOCTYPE svg PUBLIC "-//W3C//DTD SVG 20010904//EN"
 "http://www.w3.org/TR/2001/REC-SVG-20010904/DTD/svg10.dtd">
<svg version="1.0" xmlns="http://www.w3.org/2000/svg"
 width="512.000000pt" height="512.000000pt" viewBox="0 0 512.000000 512.000000"
 preserveAspectRatio="xMidYMid meet">
<metadata>
Created by potrace 1.15, written by Peter Selinger 2001-2017
</metadata>
<g transform="translate(0.000000,512.000000) scale(0.100000,-0.100000)" stroke="none">
<path d="M2441 4784 c-158 -42 -284 -170 -326 -329 -10 -40 -15 -106 -15 -205
0 -80 -5 -161 -10 -182 -16 -56 -74 -101 -171 -133 -46 -15 -100 -36 -120 -46
-52 -26 -115 -93 -144 -154 -24 -51 -55 -161 -55 -197 0 -17 52 -18 960 -18
926 0 960 1 960 18 0 39 -41 177 -65 217 -35 61 -117 131 -181 154 -30 12 -59
21 -64 21 -24 0 -118 50 -142 76 -42 45 -48 75 -48 237 0 225 -30 314 -140
423 -116 116 -282 160 -439 118z m190 -330 c40 -20 73 -92 64 -137 -31 -147
-227 -157 -266 -14 -14 54 10 121 55 148 38 23 106 25 147 3z"/>
<path d="M990 4475 c-60 -19 -119 -70 -155 -136 l-30 -54 -3 -1865 c-3 -2093
-9 -1917 74 -2009 32 -35 61 -56 100 -70 54 -21 65 -21 1584 -21 1519 0 1530
0 1584 21 39 14 68 35 100 70 83 92 77 -84 74 2009 l-3 1865 -30 54 c-16 29
-47 69 -69 87 -71 61 -96 64 -524 64 l-384 0 4 -103 c3 -116 19 -152 86 -198
34 -23 42 -24 276 -29 260 -5 268 -7 300 -62 16 -26 18 -160 23 -1682 l6
-1653 -22 -46 c-40 -84 80 -77 -1420 -77 -1495 0 -1386 -6 -1422 74 -19 44
-19 72 -17 1703 3 1525 4 1660 20 1681 38 55 45 57 304 62 234 5 242 6 276 29
67 46 83 82 86 198 l4 103 -389 -1 c-302 0 -398 -3 -433 -14z"/>
<path d="M1440 3120 l0 -80 560 0 560 0 0 80 0 80 -560 0 -560 0 0 -80z"/>
<path d="M1440 2640 l0 -80 1040 0 1040 0 0 80 0 80 -1040 0 -1040 0 0 -80z"/>
<path d="M1440 2160 l0 -80 800 0 800 0 0 80 0 80 -800 0 -800 0 0 -80z"/>
<path d="M1440 1680 l0 -80 880 0 880 0 0 80 0 80 -880 0 -880 0 0 -80z"/>
<path d="M1440 1200 l0 -80 645 0 645 0 0 80 0 80 -645 0 -645 0 0 -80z"/>
</g>
</svg>