<?xml version="1.0" encoding="utf-8"?>
<!-- Generator: Adobe Illustrator 19.1.0, SVG Export Plug-In . SVG Version: 6.00 Build 0)  -->
<svg version="1.1" id="Layer_2" xmlns="http://www.w3.org/2000/svg" xmlns:xlink="http://www.w3.org/1999/xlink" x="0px" y="0px"
	 viewBox="-642.7 854.3 487.9 76.8" style="enable-background:new -642.7 854.3 487.9 76.8;" xml:space="preserve">
<style type="text/css">
	.st0{fill:#E6E6E6;}
</style>
<polygon class="st0" points="-576.8,854.3 -598.8,931.1 -511,931.1 "/>
<polygon class="st0" points="-596,883.9 -626.2,931.1 -607,931.1 -590,887.2 "/>
<polygon class="st0" points="-615.6,899.6 -642.7,931.1 -631.7,931.1 -610.4,901.3 "/>
<path id="N" class="st0" d="M-154.8,923.7v-59.4H-168v35c-2.1-3.1-4.3-6.3-6.6-9.6c-2.3-3.3-4.7-6.6-7.1-9.7c-2.4-3.1-4.7-6-7-8.8
	c-2.3-2.7-4.4-5.1-6.3-6.9h-10.9v59.4h13.2v-38.9c5,5.9,9.8,12.1,14.2,18.8c4.5,6.6,8.6,13.3,12.4,20.1H-154.8L-154.8,923.7z"/>
<polygon id="I" class="st0" points="-230,923.7 -216.6,923.7 -216.6,864.3 -230,864.3 -230,923.7 "/>
<path id="A" class="st0" d="M-236.3,923.7c-2.2-6.4-4.4-12.3-6.4-17.7c-2-5.4-4-10.5-5.9-15.3c-1.9-4.8-3.8-9.4-5.7-13.7
	c-1.9-4.3-3.8-8.5-5.8-12.6h-12.7c-2,4.1-3.9,8.3-5.8,12.6c-1.9,4.3-3.8,8.9-5.7,13.7c-1.9,4.8-3.9,9.9-5.9,15.3
	c-2,5.4-4.1,11.3-6.4,17.7h13.9c0.6-2,1.4-4.2,2.1-6.3c0.8-2.2,1.5-4.3,2.3-6.5h23.2c0.8,2.2,1.5,4.3,2.3,6.5
	c0.8,2.2,1.5,4.3,2.1,6.4H-236.3L-236.3,923.7z M-265.3,881.2c0.6,1.5,1.2,3.2,2,5.1c0.8,1.9,1.6,4.1,2.4,6.4
	c0.9,2.3,1.7,4.8,2.6,7.4h-17c0.9-2.6,1.9-5,2.8-7.4c0.9-2.3,1.7-4.5,2.5-6.4c0.7-1.9,1.4-3.7,2-5.1c0.6-1.5,1-2.7,1.3-3.5
	C-266.3,878.6-265.9,879.8-265.3,881.2L-265.3,881.2z"/>
<path id="R" class="st0" d="M-341,864c-3.1,0.2-6.1,0.6-9,1.2v58.5h13.4V902h6.6c1.1,1.4,2.3,2.9,3.4,4.6c1.1,1.7,2.3,3.5,3.5,5.4
	c1.2,1.9,2.3,3.8,3.4,5.8c1.1,2,2.2,4,3.3,5.9h14.9c-1-2.2-2.1-4.4-3.3-6.6c-1.2-2.3-2.4-4.4-3.7-6.5c-1.3-2.1-2.6-4.1-3.9-6
	c-1.3-1.9-2.6-3.6-3.8-5.1c3.6-1.5,6.4-3.5,8.3-6.1c1.9-2.6,2.9-6,2.9-10.2c0-6.7-2.4-11.6-7.1-14.8c-4.7-3.2-11.6-4.8-20.5-4.8
	C-335.2,863.6-337.9,863.7-341,864L-341,864z M-322.2,876.9c2.2,1.2,3.3,3.3,3.3,6.2c0,3-1.1,5.2-3.3,6.4c-2.2,1.3-5.8,1.9-10.8,1.9
	h-3.8v-16.1c0.7-0.1,1.4-0.1,2.2-0.2c0.8-0.1,1.6-0.1,2.6-0.1C-327.6,875-324.4,875.6-322.2,876.9L-322.2,876.9z"/>
<path id="R_4_" class="st0" d="M-396.9,864c-3.1,0.2-6.1,0.6-9,1.2v58.5h13.4V902h6.6c1.1,1.4,2.3,2.9,3.4,4.6
	c1.1,1.7,2.3,3.5,3.5,5.4c1.2,1.9,2.3,3.8,3.4,5.8c1.1,2,2.2,4,3.3,5.9h14.9c-1-2.2-2.1-4.4-3.3-6.6c-1.2-2.3-2.4-4.4-3.7-6.5
	c-1.3-2.1-2.6-4.1-3.9-6c-1.3-1.9-2.6-3.6-3.8-5.1c3.6-1.5,6.4-3.5,8.3-6.1c1.9-2.6,2.9-6,2.9-10.2c0-6.7-2.4-11.6-7.1-14.8
	c-4.7-3.2-11.6-4.8-20.5-4.8C-391,863.6-393.8,863.7-396.9,864L-396.9,864z M-378.1,876.9c2.2,1.2,3.3,3.3,3.3,6.2
	c0,3-1.1,5.2-3.3,6.4c-2.2,1.3-5.8,1.9-10.8,1.9h-3.8v-16.1c0.7-0.1,1.4-0.1,2.2-0.2c0.8-0.1,1.6-0.1,2.6-0.1
	C-383.5,875-380.3,875.6-378.1,876.9L-378.1,876.9z"/>
<polygon id="E" class="st0" points="-414.9,923.7 -414.9,912.5 -443.6,912.5 -443.6,898.2 -419.8,898.2 -419.8,887.2 -443.6,887.2 
	-443.6,875.5 -416.8,875.5 -416.8,864.3 -456.9,864.3 -456.9,923.7 -414.9,923.7 "/>
<polygon id="T" class="st0" points="-514.9,864.3 -514.9,875.7 -497,875.7 -497,923.7 -483.6,923.7 -483.6,875.7 -465.7,875.7 
	-465.7,864.3 -514.9,864.3 "/>
</svg>
