<svg id="Layer_1" data-name="Layer 1" xmlns="http://www.w3.org/2000/svg" viewBox="0 0 23.94 18.75"><defs><style>.cls-1{fill:#8d8e8d;}</style></defs><title>icon_camera</title>
<style type="text/css">
	.cam0{fill:#FFFFFF;}
</style>
<path class="cls-1 cam0" d="M21,22H3.09a3,3,0,0,1-3-3V9.47a3,3,0,0,1,3-3H6.45L8.6,3.57a0.8,0.8,0,0,1,.64-0.32h5.59a0.8,0.8,0,0,1,.64.32l2.15,2.87H21a3,3,0,0,1,3,3V19A3,3,0,0,1,21,22ZM3.09,8A1.44,1.44,0,0,0,1.66,9.47V19A1.44,1.44,0,0,0,3.09,20.4H21A1.44,1.44,0,0,0,22.4,19V9.47A1.44,1.44,0,0,0,21,8H17.22a0.8,0.8,0,0,1-.64-0.32L14.43,4.85H9.64L7.48,7.72A0.8,0.8,0,0,1,6.85,8H3.09Z" transform="translate(-0.06 -3.25)"/>
<path class="cls-1 st0" d="M12,19.21A5.19,5.19,0,1,1,17.22,14,5.19,5.19,0,0,1,12,19.21Zm0-8.78A3.59,3.59,0,1,0,15.62,14,3.59,3.59,0,0,0,12,10.43Z" transform="translate(-0.06 -3.25)"/></svg>