<svg id="Layer_1" data-name="Layer 1" xmlns="http://www.w3.org/2000/svg" viewBox="0 0 23.934 19.25">
  <title>icon_schema</title>
  <path d="M23.318,13.313h-1.48V9.937a.478.478,0,0,0-.478-.478H13.469V5.937h1.4A1.639,1.639,0,0,0,16.509,4.3h0V1.639A1.638,1.638,0,0,0,14.872,0H11.109a1.64,1.64,0,0,0-1.64,1.639V4.3a1.64,1.64,0,0,0,1.64,1.639h1.4V9.46H4.525a.478.478,0,0,0-.478.478v3.376H2.665a1.64,1.64,0,0,0-1.64,1.638v2.659a1.64,1.64,0,0,0,1.64,1.639H6.43a1.638,1.638,0,0,0,1.64-1.636V14.952a1.638,1.638,0,0,0-1.637-1.639H5v-2.9h7.511v2.9h-1.4a1.64,1.64,0,0,0-1.64,1.639v2.659a1.64,1.64,0,0,0,1.64,1.639h3.765a1.638,1.638,0,0,0,1.64-1.636V14.952a1.638,1.638,0,0,0-1.637-1.639h-1.4v-2.9h7.413v2.9H19.554a1.64,1.64,0,0,0-1.64,1.639v2.659a1.64,1.64,0,0,0,1.64,1.639h3.765a1.638,1.638,0,0,0,1.64-1.636V14.952a1.638,1.638,0,0,0-1.637-1.639Z" transform="translate(-1.025 0)"/>
</svg>
