<?xml version="1.0" encoding="utf-8"?>
<!-- Generator: Adobe Illustrator 20.0.0, SVG Export Plug-In . SVG Version: 6.00 Build 0)  -->
<svg version="1.1" id="Layer_1" xmlns="http://www.w3.org/2000/svg" xmlns:xlink="http://www.w3.org/1999/xlink" x="0px" y="0px"
	 viewBox="0 0 24 24" style="enable-background:new 0 0 24 24;" xml:space="preserve">
<style type="text/css">
	.st0{fill:none;}
</style>
<path class="st0" d="M24,0v24H0V0H24z"/>
<path d="M14,6c0-1.1-0.9-2-2-2s-2,0.9-2,2s0.9,2,2,2S14,7.1,14,6z M14,18c0-1.1-0.9-2-2-2s-2,0.9-2,2s0.9,2,2,2S14,19.1,14,18z
	 M14,12c0-1.1-0.9-2-2-2s-2,0.9-2,2s0.9,2,2,2S14,13.1,14,12z"/>
</svg>
