<svg
   xmlns="http://www.w3.org/2000/svg"
   viewBox="-293 385 24 24"
   y="0px"
   x="0px"
>
<path
     style="fill-opacity:1;stroke-width:1;stroke-miterlimit:4;stroke-dasharray:none;stroke-opacity:1"
     id="path4253"
     d="m -287.3,389.8 c -2.805,0 -5.1,2.295 -5.1,5.1 0,2.805 2.295,5.1 5.1,5.1 2.805,0 5.1,-2.295 5.1,-5.1 0,-2.805 -2.295,-5.1 -5.1,-5.1 z m 0,9.18 c -2.244,0 -4.08,-1.836 -4.08,-4.08 0,-2.244 1.836,-4.08 4.08,-4.08 2.244,0 4.08,1.836 4.08,4.08 0,2.244 -1.836,4.08 -4.08,4.08 z" />
<path
     id="path4135"
     d="m -281.87,394.7 12.8,0"
     style="fill-rule:evenodd;stroke-width:2;stroke-linecap:butt;stroke-linejoin:miter;stroke-miterlimit:4;stroke-dasharray:none;stroke-opacity:1" />
<path
     id="path4135-7"
     d="m -270.07,395.67 0,4.8"
     style="fill-rule:evenodd;stroke-width:2;stroke-linecap:butt;stroke-linejoin:miter;stroke-miterlimit:4;stroke-dasharray:none;stroke-opacity:1" />
<path
     id="path4135-7-0"
     d="m -275.42566,395.59 0,3.8"
     style="fill-rule:evenodd;stroke-width:2;stroke-linecap:butt;stroke-linejoin:miter;stroke-miterlimit:4;stroke-dasharray:none;stroke-opacity:1" />
</svg>
