<?xml version="1.0" encoding="utf-8"?>
<!-- Generator: Adobe Illustrator 19.1.0, SVG Export Plug-In . SVG Version: 6.00 Build 0)  -->
<svg version="1.1" id="Layer_1" xmlns="http://www.w3.org/2000/svg" xmlns:xlink="http://www.w3.org/1999/xlink" x="0px" y="0px"
	 viewBox="-8 -4 24 24" style="enable-background:new -8 -4 24 24;" xml:space="preserve">
<path d="M9.1,11.1H8l-0.4-0.4C9,9.2,9.8,7.1,9.8,4.9C9.8,0,5.9-4,0.9-4S-8,0-8,4.9s4,8.9,8.9,8.9c2.2,0,4.3-0.8,5.8-2.2L7.1,12v1.1
	l6.9,6.9l2.1-2.1L9.1,11.1z M0.9,11.1c-3.4,0-6.2-2.7-6.2-6.2s2.7-6.2,6.2-6.2s6.2,2.7,6.2,6.2S4.3,11.1,0.9,11.1z"/>
</svg>
