<svg id="Layer_2" data-name="Layer 2" xmlns="http://www.w3.org/2000/svg" viewBox="0 0 24 24"><title>icon_inputDropdown</title><path d="M22.4,0H1.6A1.6,1.6,0,0,0,0,1.6V22.4A1.6,1.6,0,0,0,1.6,24H22.4A1.6,1.6,0,0,0,24,22.4h0V1.6A1.6,1.6,0,0,0,22.4,0h0ZM21.6,21.6H2.4V2.4H21.6V21.6Z"/><path d="M10.4,7.5h0L9,6.09a1.2,1.2,0,0,0-1.7,1.7L8.4,8.9v7L7.29,17A1.21,1.21,0,0,0,9,18.71l1.4-1.41h0a1.2,1.2,0,0,0,.4-0.9v-8A1.2,1.2,0,0,0,10.4,7.5Z"/><path d="M13.6,17.3h0L15,18.71A1.2,1.2,0,0,0,16.7,17L15.6,15.9v-7l1.11-1.11A1.21,1.21,0,1,0,15,6.09L13.6,7.5h0a1.2,1.2,0,0,0-.4.9v8A1.2,1.2,0,0,0,13.6,17.3Z"/></svg>