<svg id="Layer_2" data-name="Layer 2" xmlns="http://www.w3.org/2000/svg" viewBox="0 0 23.76 15.35"><defs><style>.cls-1{}</style></defs><title>icon_group</title><path class="cls-1" d="M16.17,6.57a3.29,3.29,0,1,0-3.23-3.35V3.28a3.25,3.25,0,0,0,3.21,3.29h0Zm-8.62,0A3.29,3.29,0,1,0,4.31,3.23v0A3.25,3.25,0,0,0,7.52,6.57h0Zm0,2.19C5,8.76,0,10.05,0,12.6v2.74H15.09V12.6C15.09,10.05,10.06,8.76,7.55,8.76Zm8.62,0a6.84,6.84,0,0,0-1,.05,4.64,4.64,0,0,1,2.12,3.78v2.74h6.47V12.6C23.71,10.05,18.68,8.76,16.17,8.76Z" transform="translate(0 0.01)"/></svg>