<svg id="Layer_2" data-name="Layer 2" xmlns="http://www.w3.org/2000/svg" viewBox="0 0 487.9 76.8"><title>icon_terrain</title><polygon points="65.9 0 43.9 76.8 131.7 76.8 65.9 0"/><polygon points="46.7 29.6 16.5 76.8 35.7 76.8 52.7 32.9 46.7 29.6"/><polygon points="27.1 45.3 0 76.8 11 76.8 32.3 47 27.1 45.3"/><path id="N" d="M710.9,38.6V-20.8H697.7v35q-3.15-4.65-6.6-9.6c-2.3-3.3-4.7-6.6-7.1-9.7s-4.7-6-7-8.8a93,93,0,0,0-6.3-6.9H659.8V38.6H673V-0.3a192.72,192.72,0,0,1,14.2,18.8c4.5,6.6,8.6,13.3,12.4,20.1h11.3Z" transform="translate(-223 30.8)"/><polygon id="I" points="412.7 69.4 426.1 69.4 426.1 10 412.7 10 412.7 69.4"/><path id="A" d="M629.4,38.6c-2.2-6.4-4.4-12.3-6.4-17.7s-4-10.5-5.9-15.3-3.8-9.4-5.7-13.7-3.8-8.5-5.8-12.6H592.9c-2,4.1-3.9,8.3-5.8,12.6s-3.8,8.9-5.7,13.7-3.9,9.9-5.9,15.3-4.1,11.3-6.4,17.7H583c0.6-2,1.4-4.2,2.1-6.3s1.5-4.3,2.3-6.5h23.2c0.8,2.2,1.5,4.3,2.3,6.5s1.5,4.3,2.1,6.4h14.4V38.6h0Zm-29-42.5c0.6,1.5,1.2,3.2,2,5.1s1.6,4.1,2.4,6.4,1.7,4.8,2.6,7.4h-17c0.9-2.6,1.9-5,2.8-7.4s1.7-4.5,2.5-6.4,1.4-3.7,2-5.1,1-2.7,1.3-3.5c0.4,0.9.8,2.1,1.4,3.5h0Z" transform="translate(-223 30.8)"/><path id="R" d="M524.7-21.1a65,65,0,0,0-9,1.2V38.6h13.4V16.9h6.6c1.1,1.4,2.3,2.9,3.4,4.6s2.3,3.5,3.5,5.4,2.3,3.8,3.4,5.8,2.2,4,3.3,5.9h14.9q-1.5-3.3-3.3-6.6c-1.2-2.3-2.4-4.4-3.7-6.5s-2.6-4.1-3.9-6-2.6-3.6-3.8-5.1a19,19,0,0,0,8.3-6.1,16.89,16.89,0,0,0,2.9-10.2c0-6.7-2.4-11.6-7.1-14.8s-11.6-4.8-20.5-4.8c-2.6,0-5.3.1-8.4,0.4h0ZM543.5-8.2c2.2,1.2,3.3,3.3,3.3,6.2s-1.1,5.2-3.3,6.4-5.8,1.9-10.8,1.9h-3.8V-9.8c0.7-.1,1.4-0.1,2.2-0.2a20.92,20.92,0,0,1,2.6-.1c4.4,0,7.6.6,9.8,1.9h0Z" transform="translate(-223 30.8)"/><path id="R-2" data-name="R" d="M468.8-21.1a65,65,0,0,0-9,1.2V38.6h13.4V16.9h6.6c1.1,1.4,2.3,2.9,3.4,4.6s2.3,3.5,3.5,5.4,2.3,3.8,3.4,5.8,2.2,4,3.3,5.9h14.9q-1.5-3.3-3.3-6.6c-1.2-2.3-2.4-4.4-3.7-6.5s-2.6-4.1-3.9-6-2.6-3.6-3.8-5.1a19,19,0,0,0,8.3-6.1,16.89,16.89,0,0,0,2.9-10.2c0-6.7-2.4-11.6-7.1-14.8s-11.6-4.8-20.5-4.8c-2.5,0-5.3.1-8.4,0.4h0ZM487.6-8.2c2.2,1.2,3.3,3.3,3.3,6.2s-1.1,5.2-3.3,6.4-5.8,1.9-10.8,1.9H473V-9.8c0.7-.1,1.4-0.1,2.2-0.2a20.92,20.92,0,0,1,2.6-.1c4.4,0,7.6.6,9.8,1.9h0Z" transform="translate(-223 30.8)"/><polygon id="E" points="227.8 69.4 227.8 58.2 199.1 58.2 199.1 43.9 222.9 43.9 222.9 32.9 199.1 32.9 199.1 21.2 225.9 21.2 225.9 10 185.8 10 185.8 69.4 227.8 69.4"/><polygon id="T" points="127.8 10 127.8 21.4 145.7 21.4 145.7 69.4 159.1 69.4 159.1 21.4 177 21.4 177 10 127.8 10"/></svg>