<?xml version="1.0" encoding="utf-8"?>
<!-- Generator: Adobe Illustrator 19.1.0, SVG Export Plug-In . SVG Version: 6.00 Build 0)  -->
<svg version="1.1" id="Layer_2" xmlns="http://www.w3.org/2000/svg" xmlns:xlink="http://www.w3.org/1999/xlink" x="0px" y="0px"
	 viewBox="223 -30.8 487.9 76.8" style="enable-background:new 223 -30.8 487.9 76.8;" xml:space="preserve">
<style type="text/css">
	.st0{fill:#E6E6E6;}
</style>
<polygon class="st0" points="288.9,-30.8 266.9,46 354.7,46 "/>
<polygon class="st0" points="269.7,-1.2 239.5,46 258.7,46 275.7,2.1 "/>
<polygon class="st0" points="250.1,14.5 223,46 234,46 255.3,16.2 "/>
<path id="N" class="st0" d="M710.9,38.6v-59.4h-13.2v35c-2.1-3.1-4.3-6.3-6.6-9.6c-2.3-3.3-4.7-6.6-7.1-9.7c-2.4-3.1-4.7-6-7-8.8
	c-2.3-2.7-4.4-5.1-6.3-6.9h-10.9v59.4H673V-0.3c5,5.9,9.8,12.1,14.2,18.8c4.5,6.6,8.6,13.3,12.4,20.1L710.9,38.6L710.9,38.6z"/>
<polygon id="I" class="st0" points="635.7,38.6 649.1,38.6 649.1,-20.8 635.7,-20.8 "/>
<path id="A" class="st0" d="M629.4,38.6c-2.2-6.4-4.4-12.3-6.4-17.7s-4-10.5-5.9-15.3c-1.9-4.8-3.8-9.4-5.7-13.7s-3.8-8.5-5.8-12.6
	h-12.7c-2,4.1-3.9,8.3-5.8,12.6c-1.9,4.3-3.8,8.9-5.7,13.7s-3.9,9.9-5.9,15.3c-2,5.4-4.1,11.3-6.4,17.7H583c0.6-2,1.4-4.2,2.1-6.3
	c0.8-2.2,1.5-4.3,2.3-6.5h23.2c0.8,2.2,1.5,4.3,2.3,6.5c0.8,2.2,1.5,4.3,2.1,6.4h14.4V38.6z M600.4-3.9c0.6,1.5,1.2,3.2,2,5.1
	c0.8,1.9,1.6,4.1,2.4,6.4c0.9,2.3,1.7,4.8,2.6,7.4h-17c0.9-2.6,1.9-5,2.8-7.4c0.9-2.3,1.7-4.5,2.5-6.4c0.7-1.9,1.4-3.7,2-5.1
	c0.6-1.5,1-2.7,1.3-3.5C599.4-6.5,599.8-5.3,600.4-3.9L600.4-3.9z"/>
<path id="R" class="st0" d="M524.7-21.1c-3.1,0.2-6.1,0.6-9,1.2v58.5h13.4V16.9h6.6c1.1,1.4,2.3,2.9,3.4,4.6
	c1.1,1.7,2.3,3.5,3.5,5.4c1.2,1.9,2.3,3.8,3.4,5.8s2.2,4,3.3,5.9h14.9c-1-2.2-2.1-4.4-3.3-6.6c-1.2-2.3-2.4-4.4-3.7-6.5
	c-1.3-2.1-2.6-4.1-3.9-6s-2.6-3.6-3.8-5.1c3.6-1.5,6.4-3.5,8.3-6.1s2.9-6,2.9-10.2c0-6.7-2.4-11.6-7.1-14.8s-11.6-4.8-20.5-4.8
	C530.5-21.5,527.8-21.4,524.7-21.1L524.7-21.1z M543.5-8.2c2.2,1.2,3.3,3.3,3.3,6.2c0,3-1.1,5.2-3.3,6.4c-2.2,1.3-5.8,1.9-10.8,1.9
	h-3.8V-9.8c0.7-0.1,1.4-0.1,2.2-0.2c0.8-0.1,1.6-0.1,2.6-0.1C538.1-10.1,541.3-9.5,543.5-8.2L543.5-8.2z"/>
<path id="R_4_" class="st0" d="M468.8-21.1c-3.1,0.2-6.1,0.6-9,1.2v58.5h13.4V16.9h6.6c1.1,1.4,2.3,2.9,3.4,4.6
	c1.1,1.7,2.3,3.5,3.5,5.4s2.3,3.8,3.4,5.8s2.2,4,3.3,5.9h14.9c-1-2.2-2.1-4.4-3.3-6.6c-1.2-2.3-2.4-4.4-3.7-6.5
	c-1.3-2.1-2.6-4.1-3.9-6s-2.6-3.6-3.8-5.1c3.6-1.5,6.4-3.5,8.3-6.1s2.9-6,2.9-10.2c0-6.7-2.4-11.6-7.1-14.8s-11.6-4.8-20.5-4.8
	C474.7-21.5,471.9-21.4,468.8-21.1L468.8-21.1z M487.6-8.2c2.2,1.2,3.3,3.3,3.3,6.2c0,3-1.1,5.2-3.3,6.4c-2.2,1.3-5.8,1.9-10.8,1.9
	H473V-9.8c0.7-0.1,1.4-0.1,2.2-0.2c0.8-0.1,1.6-0.1,2.6-0.1C482.2-10.1,485.4-9.5,487.6-8.2L487.6-8.2z"/>
<polygon id="E" class="st0" points="450.8,38.6 450.8,27.4 422.1,27.4 422.1,13.1 445.9,13.1 445.9,2.1 422.1,2.1 422.1,-9.6 
	448.9,-9.6 448.9,-20.8 408.8,-20.8 408.8,38.6 "/>
<polygon id="T" class="st0" points="350.8,-20.8 350.8,-9.4 368.7,-9.4 368.7,38.6 382.1,38.6 382.1,-9.4 400,-9.4 400,-20.8 "/>
</svg>
