<svg id="Layer_1" data-name="Layer 1" xmlns="http://www.w3.org/2000/svg" viewBox="0 0 23.91 18.75"><title>icon_camera</title><path d="M20.94,18.75H3a3,3,0,0,1-3-3V6.22a3,3,0,0,1,3-3H6.39l2.15-2.9A0.8,0.8,0,0,1,9.18,0h5.59a0.8,0.8,0,0,1,.64.32l2.15,2.87h3.38a3,3,0,0,1,3,3v9.56A3,3,0,0,1,20.94,18.75ZM3,4.75A1.44,1.44,0,0,0,1.6,6.2v9.55A1.44,1.44,0,0,0,3,17.15H20.94a1.44,1.44,0,0,0,1.4-1.4V6.22a1.44,1.44,0,0,0-1.4-1.47H17.16a0.8,0.8,0,0,1-.64-0.32L14.37,1.6H9.58L7.42,4.47a0.8,0.8,0,0,1-.63.28H3Z" transform="translate(-0.03)"/><path d="M11.94,16A5.19,5.19,0,1,1,12,16H11.94Zm0-8.78a3.59,3.59,0,1,0,3.62,3.57,3.59,3.59,0,0,0-3.62-3.57h0Z" transform="translate(-0.03)"/></svg>