<svg class="input-st" id="Layer_3" data-name="Layer 3" xmlns="http://www.w3.org/2000/svg" viewBox="0 0 13.71 21.01"><title>icon_input</title>
<style type="text/css">
	.input-st{width:10px;}
</style>
<path  d="M1,21a1,1,0,0,1-.71-1.7l3-3V4.68l-3-3A1,1,0,0,1,1.71.28h0L5,3.56a1,1,0,0,1,.29.71V16.76a1,1,0,0,1-.29.71L1.71,20.74A1,1,0,0,1,1,21Z" transform="translate(0 0.01)"/>
<path  d="M12.69,21A1,1,0,0,1,12,20.74L8.71,17.48a1,1,0,0,1-.29-0.71V4.27a1,1,0,0,1,.29-0.71L12,0.29a1,1,0,1,1,1.41,1.42l-3,3V16.35l3,3A1,1,0,0,1,12.69,21Z" transform="translate(0 0.01)"/></svg>
