<?xml version="1.0" encoding="utf-8"?>
<!-- Generator: Adobe Illustrator 19.1.0, SVG Export Plug-In . SVG Version: 6.00 Build 0)  -->
<svg version="1.1" id="Layer_1" xmlns="http://www.w3.org/2000/svg" xmlns:xlink="http://www.w3.org/1999/xlink" x="0px" y="0px"
	 viewBox="-8 -4 24 24" style="enable-background:new -8 -4 24 24;" xml:space="preserve">
<path d="M-6.1,20c-0.4,0-0.9-0.1-1.3-0.6c-0.7-0.7-0.7-1.9,0-2.6l8.9-8.9l-8.7-8.7C-8-1.6-8-2.7-7.3-3.5s1.9-0.7,2.6,0L5.4,6.6
	c0.3,0.3,0.6,0.9,0.6,1.3c0,0.4-0.1,1-0.6,1.3L-4.8,19.4C-5.3,19.9-5.7,20-6.1,20z"/>
<path d="M3.9,20c-0.4,0-0.9-0.1-1.3-0.6c-0.7-0.7-0.7-1.9,0-2.6l8.9-8.9L2.7-0.8C2-1.6,2-2.7,2.7-3.5s1.9-0.7,2.6,0L15.4,6.6
	C15.7,6.9,16,7.5,16,7.9c0,0.4-0.1,1-0.6,1.3L5.2,19.4C4.9,19.9,4.5,20,3.9,20z"/>
</svg>
