<svg id="Layer_2" data-name="Layer 2" xmlns="http://www.w3.org/2000/svg" viewBox="0 0 24 24"><title>icon_numberDropdown</title><path d="M22.4,0H1.6A1.6,1.6,0,0,0,0,1.6V22.4A1.6,1.6,0,0,0,1.6,24H22.4A1.6,1.6,0,0,0,24,22.4h0V1.6A1.6,1.6,0,0,0,22.4,0h0ZM21.6,21.6H2.4V2.4H21.6V21.6Z"/><path d="M9.2,4A1.2,1.2,0,0,0,8,5.2V18.8a1.2,1.2,0,0,0,2.4,0V5.2A1.2,1.2,0,0,0,9.2,4Z"/><path d="M14.8,4a1.2,1.2,0,0,0-1.2,1.2V18.8a1.2,1.2,0,1,0,2.4,0h0V5.2A1.2,1.2,0,0,0,14.8,4Z"/><path d="M20,9.2A1.2,1.2,0,0,0,18.8,8H5.2a1.2,1.2,0,0,0,0,2.4H18.8A1.2,1.2,0,0,0,20,9.2h0Z"/><path d="M20,14.8a1.2,1.2,0,0,0-1.2-1.2H5.2a1.2,1.2,0,0,0,0,2.4H18.8A1.2,1.2,0,0,0,20,14.8h0Z"/></svg>