<svg xmlns="http://www.w3.org/2000/svg" xmlns:xlink="http://www.w3.org/1999/xlink" viewBox="0 0 30 37.5" version="1.1" x="0px" y="0px" transform="scale(1.5, 1.5)"><g stroke="none" stroke-width="1" fill-rule="evenodd"><g transform="translate(-135.000000, -135.000000)"><path d="M158,157 L161.505615,157 C161.775391,157 162,156.778656 162,156.505615 L162,138.494385 C162,138.224609 161.778656,138 161.505615,138 L143.494385,138 C143.224609,138 143,138.221344 143,138.494385 L143,142 L139.495389,142 C139.215753,142 139,142.221344 139,142.494385 L139,160.505615 C139,160.775391 139.221344,161 139.494385,161 L157.505615,161 C157.775391,161 158,160.778207 158,160.504611 L158,157 Z M157,157 L143.494385,157 C143.221344,157 143,156.775391 143,156.505615 L143,143 L140,143 L140,160 L157,160 L157,157 Z M161,139 L161,156 L144,156 L144,139 L161,139 Z"/></g></g></svg>