<svg id="Layer_1" xmlns="http://www.w3.org/2000/svg" viewBox="0 0 598.9 94.1"><title>icon_terrain</title><g id="Mountain"><g id="Mountain3"><path id="Silhouette" d="M72.6,166.8h0l23.1-32.4a3.139,3.139,0,0,0,.7-2.1,3.543,3.543,0,0,0-3.5-3.5,3.5,3.5,0,0,0-2.8,1.4L62.4,162.5a3.642,3.642,0,0,0-.9,2.3,3.543,3.543,0,0,0,3.5,3.5h4.6a3.692,3.692,0,0,0,3-1.5Z" transform="translate(-61.5 -74.3)" style="fill:#93ac37"/><path id="Bottom" d="M72.5,166.8h0l6.6-9.3-14.7,3.9h0a3.6,3.6,0,0,0-2.1,1.1h0a3.465,3.465,0,0,0-.8,1.6h0v.3h0v.3a3.543,3.543,0,0,0,3.5,3.5h4.6A3.09,3.09,0,0,0,72.5,166.8Z" transform="translate(-61.5 -74.3)" style="fill:#93ac37"/><path id="Top" d="M64.5,161.4h0l14.7-3.9,16.5-23.1a3.139,3.139,0,0,0,.7-2.1,3.543,3.543,0,0,0-3.5-3.5,3.5,3.5,0,0,0-2.8,1.4L62.4,162.5A3.6,3.6,0,0,1,64.5,161.4Z" transform="translate(-61.5 -74.3)" style="fill:#a7bb2e"/></g><g id="Mountain2"><path id="Silhouette-2" data-name="Silhouette" d="M123.3,115.6a3.339,3.339,0,0,0,.3-1.5,3.5,3.5,0,0,0-1.9-3.1h0l-2-1.1h0a3.287,3.287,0,0,0-1.7-.4,3.936,3.936,0,0,0-3,1.6h0L81.9,162.9h0a3.379,3.379,0,0,0-.6,2,3.543,3.543,0,0,0,3.5,3.5h15.7a3.448,3.448,0,0,0,3.3-2.5h0Z" transform="translate(-61.5 -74.3)" style="fill:#93ac37"/><path id="Bottom-2" data-name="Bottom" d="M103.8,165.8h0l6.4-16.5-23.6,6.2-4.7,7.3h0a3.379,3.379,0,0,0-.6,2,3.543,3.543,0,0,0,3.5,3.5h15.7A3.421,3.421,0,0,0,103.8,165.8Z" transform="translate(-61.5 -74.3)" style="fill:#93ac37"/><path id="Top-2" data-name="Top" d="M123.3,115.6a3.339,3.339,0,0,0,.3-1.5,3.5,3.5,0,0,0-1.9-3.1h0l-2-1.1h0a3.287,3.287,0,0,0-1.7-.4,3.936,3.936,0,0,0-3,1.6h0L86.6,155.6l23.6-6.2Z" transform="translate(-61.5 -74.3)" style="fill:#a7bb2e"/></g><g id="Mountain1"><path id="Silhouette-3" data-name="Silhouette" d="M219.6,162.1l-74-86.3a3.44,3.44,0,0,0-6.2,1.2h0l-24.7,86.5h0a5.019,5.019,0,0,0-.2,1.2,3.543,3.543,0,0,0,3.5,3.5h99.5a3.543,3.543,0,0,0,3.5-3.5A4.215,4.215,0,0,0,219.6,162.1Z" transform="translate(-61.5 -74.3)" style="fill:#a7bb2e"/><path id="TopLeft" d="M219.6,162.1l-74-86.3a3.44,3.44,0,0,0-6.2,1.2h0l-24.7,86.5h0a5.019,5.019,0,0,0-.2,1.2,3.543,3.543,0,0,0,3.5,3.5h99.5a3.543,3.543,0,0,0,3.5-3.5A4.215,4.215,0,0,0,219.6,162.1Z" transform="translate(-61.5 -74.3)" style="fill:#a7bb2e"/><path id="BottomLeft" d="M139.3,164.8V141.6l-19.9,5.3h0l-4.8,16.6h0a2.745,2.745,0,0,0-.2,1.3,3.543,3.543,0,0,0,3.5,3.5h24.8A3.4,3.4,0,0,1,139.3,164.8Z" transform="translate(-61.5 -74.3)" style="fill:#93ac37"/><path id="TopRight" d="M219.5,162.1,145.6,75.9a3.46,3.46,0,0,0-2.8-1.5,3.543,3.543,0,0,0-3.5,3.5v87a3.543,3.543,0,0,0,3.5,3.5h74.6a3.543,3.543,0,0,0,3.5-3.5A3.5,3.5,0,0,0,219.5,162.1Z" transform="translate(-61.5 -74.3)" style="fill:#c8d93a"/><path id="BottomRight" d="M220.8,164.4v-.6c0-.1,0-.1-.1-.2,0-.1,0-.1-.1-.2,0-.1-.1-.1-.1-.2s0-.1-.1-.1c0-.1-.1-.1-.1-.2l-.1-.1c0-.1-.1-.1-.1-.2l-.1-.1-.2-.2-.1-.1h0c-.1-.1-.2-.2-.3-.2L196,134.7l-4.2-4.9h0l-.1-.1h0a3.467,3.467,0,0,0-2.6-1.1,2.2,2.2,0,0,0-.8.1h0l-49.1,13v23.2a3.543,3.543,0,0,0,3.5,3.5h74.6a3.543,3.543,0,0,0,3.5-3.5C220.9,164.7,220.8,164.6,220.8,164.4Z" transform="translate(-61.5 -74.3)" style="fill:#b3cc33"/></g></g><g id="Terrain"><polygon id="T" points="224.9 10.6 165.7 10.6 165.7 24.3 187.3 24.3 187.3 27.4 187.3 82 203.4 82 203.4 27.4 203.4 24.3 224.9 24.3 224.9 10.6" style="fill:#b8c722"/><polygon id="E" points="254.7 68.5 251.6 68.5 251.6 51.3 279 51.3 280.1 51.3 280.1 38.1 251.6 38.1 251.6 24.1 283.7 24.1 283.7 10.6 235.4 10.6 235.4 82 249.2 82 251.6 82 254.7 82 286 82 286 68.5 254.7 68.5" style="fill:#b8c722"/><path id="R" d="M401.1,130l-2-2.3c7.3-2.8,13.2-8.4,13.2-20.1,0-23.2-24.9-23.5-34.7-23.5a122.311,122.311,0,0,0-19.5,1.8v70.5h16.1V130.3h8.2l2.2,3.1s12.1,18,14.1,23h18C416.6,156.3,407.7,137.7,401.1,130Zm-23.8-12.5h-3.1V98.3c2.8-.2,5.9-.4,9.3-.4,8,0,12.1,4.4,12.1,10C395.7,116.5,390.1,117.5,377.3,117.5Z" transform="translate(-61.5 -74.3)" style="fill:#b8c722"/><path id="R-2" data-name="R" d="M468.3,130l-2-2.3c7.3-2.8,13.2-8.4,13.2-20.1,0-23.2-24.9-23.5-34.7-23.5a122.311,122.311,0,0,0-19.5,1.8v70.5h16.1V130.3h8.2l2.2,3.1s12.1,18,14.1,23h18C483.9,156.3,475,137.7,468.3,130Zm-23.7-12.5h-3.1V98.3c2.8-.2,5.9-.4,9.3-.4,8,0,12.1,4.4,12.1,10C462.9,116.5,457.3,117.5,444.6,117.5Z" transform="translate(-61.5 -74.3)" style="fill:#b8c722"/><path id="A" d="M562.3,156.3c-3.5-12.3-23.4-61.1-28.6-71.4H518.5l-1.7,3.2c-6.1,11-23.5,56.1-26.8,68.2h16.7c1-3.9,2.8-9.5,4.8-15.5h28.9c2.1,6.3,3.8,11.8,4.8,15.5h17.1Zm-29.9-28.2H515.9c4.3-12.1,8.3-22.8,8.3-22.8l1.6-4c3.4,8.4,7,17.9,10.1,26.8Z" transform="translate(-61.5 -74.3)" style="fill:#b8c722"/><polygon id="I" points="508.4 82 524.4 82 524.4 10.6 508.4 10.6 508.4 82" style="fill:#b8c722"/><path id="N" d="M644.4,84.9v43c-10.3-16-23.1-33.6-32.4-43H598.9v71.4h15.9V108.2c11.5,16.8,25.8,37.7,32.1,48.1h13.5V84.9Z" transform="translate(-61.5 -74.3)" style="fill:#b8c722"/></g></svg>