<svg id="Layer_3" data-name="Layer 3" xmlns="http://www.w3.org/2000/svg" viewBox="0 0 13.7 21.03"><defs><style></style></defs><title>icon_text</title><path d="M0,21a1,1,0,0,1-.71-0.29,1,1,0,0,1,0-1.41l3-3V4.68l-3-3A1,1,0,0,1-.7.29,1,1,0,0,1,.72.29L4,3.56a1,1,0,0,1,.29.71V16.76a1,1,0,0,1-.29.71L0.71,20.74A1,1,0,0,1,0,21Z" transform="translate(1 0)"/><path d="M11.69,21A1,1,0,0,1,11,20.74L7.71,17.48a1,1,0,0,1-.29-0.71V4.27a1,1,0,0,1,.29-0.71L11,0.29a1,1,0,0,1,1.41,1.42l-3,3V16.35l3,3A1,1,0,0,1,11.69,21Z" transform="translate(1 0)"/></svg>