<?xml version="1.0" encoding="utf-8"?>
<!-- Generator: Adobe Illustrator 19.1.0, SVG Export Plug-In . SVG Version: 6.00 Build 0)  -->
<svg version="1.1" id="Layer_1" xmlns="http://www.w3.org/2000/svg" xmlns:xlink="http://www.w3.org/1999/xlink" x="0px" y="0px"
	 viewBox="-887 889 24 24" style="enable-background:new -887 889 24 24;" xml:space="preserve">
<path d="M-883,899.5c-0.8,0-1.5,0.7-1.5,1.5s0.7,1.5,1.5,1.5s1.5-0.7,1.5-1.5S-882.2,899.5-883,899.5z M-883,893.5
	c-0.8,0-1.5,0.7-1.5,1.5s0.7,1.5,1.5,1.5s1.5-0.7,1.5-1.5S-882.2,893.5-883,893.5z M-883,905.7c-0.7,0-1.3,0.6-1.3,1.3
	s0.6,1.3,1.3,1.3s1.3-0.6,1.3-1.3S-882.3,905.7-883,905.7z M-880,908h14v-2h-14V908z M-880,902h14v-2h-14V902z M-880,894v2h14v-2
	H-880z"/>
</svg>
