<?xml version="1.0" encoding="UTF-8"?>
<svg width="13px" height="12px" viewBox="0 0 13 12" version="1.1" xmlns="http://www.w3.org/2000/svg" xmlns:xlink="http://www.w3.org/1999/xlink">
    <!-- Generator: Sketch 50.2 (55047) - http://www.bohemiancoding.com/sketch -->
    <title>icon-feedback</title>
    <desc>Created with Sketch.</desc>
    <defs></defs>
    <g id="Bug/Feedback-Button" stroke="none" stroke-width="1" fill="none" fill-rule="evenodd">
        <g id="Feedback/Bugs-|-Collapsed-State" transform="translate(-26.000000, -1115.000000)" fill="#6B6B6B">
            <g id="btn-feedback" transform="translate(20.000000, 1109.000000)">
                <path d="M11.4090763,7.15427182 C11.3443778,8.83036876 11.1228802,9.82403915 10.0614777,11.3207579 C9.92858308,11.1140271 9.69660011,10.9735507 9.43196572,10.9735507 L6.74607962,10.9735507 C6.33806353,10.9735507 6,11.3047644 6,11.7045132 L6,16.967443 C6,17.3671918 6.33806353,17.6984055 6.74607962,17.6984055 L9.43196572,17.6984055 C9.68960189,17.6984055 9.91749932,17.5670603 10.0521368,17.3694724 C10.2071871,17.4922507 10.3511506,17.6018892 10.4997845,17.6892684 C10.745752,17.8337476 11.023786,17.9199747 11.4044059,17.958818 C12.1650637,18.0359112 13.4141947,17.9788055 16.2958521,17.9907976 C16.3634648,17.9890845 16.4304956,17.9650999 16.482372,17.9222699 C17.0623294,17.4585621 17.3141312,17.0148532 17.4289678,16.5151673 C17.4855072,16.498035 17.5362167,16.464342 17.5735207,16.4192285 C18.0071719,15.8881404 18.163968,15.2753891 18.0631279,14.7470787 C18.1045114,14.728233 18.1418154,14.6996802 18.1703768,14.6648454 C18.6768901,14.0823561 18.7794761,13.3371252 18.5993725,12.7734069 C18.9088761,12.4147821 19.0365303,11.9939086 18.9910642,11.603867 C18.9182051,11.1098972 18.5521606,10.6136467 18.0864428,10.5348344 L14.2441336,10.5348344 C14.4737917,9.05405059 14.3216557,7.69314466 13.8104823,6.81145773 C13.5347761,6.33519182 13.1320126,6.06907762 12.7333226,6.01196021 C12.0332912,5.92116152 11.4690611,6.35174081 11.4090316,7.15408908 L11.4090763,7.15427182 Z M12.52354,6.5877759 C12.8126458,6.55808128 13.1344,6.7779431 13.292927,7.09944963 C13.7295029,7.85267722 13.9107703,9.26090566 13.6146663,10.7725361 C13.5820253,10.9409937 13.73299,11.1203134 13.9084426,11.1197432 L18.0026283,11.1197432 C18.2264521,11.2322427 18.3704156,11.4264112 18.3989755,11.6679651 C18.4263701,11.902107 18.3290306,12.1773582 18.0865473,12.4354757 L15.9928991,12.4354757 C15.8349391,12.4354757 15.6898117,12.5731028 15.6898117,12.7278607 C15.6898117,12.88262 15.83553,13.0225263 15.9928991,13.0202457 L18.0492433,13.0202457 C18.1390056,13.3434626 18.0702261,13.7729031 17.774119,14.1897856 L15.9927797,14.1897856 C15.8348198,14.1897856 15.6896924,14.3274127 15.6896924,14.4821706 C15.6896924,14.63693 15.8354106,14.7768362 15.9927797,14.7745556 L17.4522902,14.7745556 C17.5420525,15.0977726 17.4732729,15.527213 17.1771659,15.9440955 L15.9927648,15.9440955 C15.8348048,15.9440955 15.6896775,16.0817226 15.6896775,16.2364805 C15.6896775,16.3912399 15.8353957,16.5311461 15.9927648,16.5288655 L16.8181077,16.5288655 C16.7260132,16.8418052 16.5575619,17.0816486 16.1699437,17.4060205 C13.3966171,17.3968835 12.1102269,17.4397135 11.4650174,17.3740409 C11.1362798,17.3409195 10.9812296,17.293521 10.8075423,17.1913003 C10.6507462,17.0993583 10.4589889,16.9371738 10.1780303,16.7161747 L10.1780303,12.1567231 C11.5646936,10.4287279 11.9371365,8.97586684 12.005925,7.17711439 C12.0933565,6.78536237 12.2985224,6.61061848 12.5235251,6.58778321 L12.52354,6.5877759 Z M6.74604978,11.5583207 L9.43193588,11.5583207 C9.51994938,11.5583207 9.58115177,11.618283 9.58115177,11.7045132 L9.58115177,16.967443 C9.58115177,17.0536732 9.51994938,17.1136355 9.43193588,17.1136355 L6.74604978,17.1136355 C6.65803628,17.1136355 6.59683388,17.0536732 6.59683388,16.967443 L6.59683388,11.7045132 C6.59683388,11.618283 6.65803628,11.5583207 6.74604978,11.5583207 Z M8.08899283,15.2086011 C7.84186146,15.2086011 7.64134515,15.4050546 7.64134515,15.6471786 C7.64134515,15.8893026 7.84186146,16.0857561 8.08899283,16.0857561 C8.33612419,16.0857561 8.53664051,15.8893026 8.53664051,15.6471786 C8.53664051,15.4050546 8.33612419,15.2086011 8.08899283,15.2086011 Z" id="icon-feedback"></path>
            </g>
        </g>
    </g>
</svg>