<svg id="Layer_1" data-name="Layer 1" xmlns="http://www.w3.org/2000/svg" viewBox="0 0 9.62 14.49"><defs><style>.cls-1{fill:#0f0f0f;}</style></defs><title>icon_more</title><path class="cls-1" d="M6.06,5.37A1.81,1.81,0,1,0,4.25,7.19,1.81,1.81,0,0,0,6.06,5.37Zm0,10.88a1.81,1.81,0,1,0-1.81,1.81A1.81,1.81,0,0,0,6.06,16.25Zm0-5.44a1.81,1.81,0,1,0-1.81,1.81A1.81,1.81,0,0,0,6.06,10.81Z" transform="translate(-2.44 -3.56)"/><path class="cls-1" d="M12.06,5.37a1.81,1.81,0,1,0-1.81,1.82A1.81,1.81,0,0,0,12.06,5.37Zm0,10.88a1.81,1.81,0,1,0-1.81,1.81A1.81,1.81,0,0,0,12.06,16.25Zm0-5.44a1.81,1.81,0,1,0-1.81,1.81A1.81,1.81,0,0,0,12.06,10.81Z" transform="translate(-2.44 -3.56)"/></svg>