<svg id="Layer_2" data-name="Layer 2" xmlns="http://www.w3.org/2000/svg" viewBox="0 0 23.71 15.34"><defs><style>.cls-1{fill:#8d8e8d;}</style></defs><title>icon_builder_13x13 [Recovered]</title><path class="cls-1" d="M16.17,11.66a3.29,3.29,0,1,0-3.23-3.29A3.25,3.25,0,0,0,16.17,11.66Zm-8.62,0A3.29,3.29,0,1,0,4.31,8.37,3.25,3.25,0,0,0,7.55,11.66Zm0,2.19C5,13.85,0,15.14,0,17.69v2.74H15.09V17.69C15.09,15.14,10.06,13.85,7.55,13.85Zm8.62,0c-0.31,0-.67,0-1,0.05a4.64,4.64,0,0,1,2.12,3.78v2.74h6.47V17.69C23.71,15.14,18.68,13.85,16.17,13.85Z" transform="translate(0 -5.09)"/></svg>