<svg id="Layer_2" data-name="Layer 2" xmlns="http://www.w3.org/2000/svg" viewBox="0 0 24 24"><title>icon_builderDropdown</title><path d="M22.4,6.4A1.6,1.6,0,0,0,24,4.8h0V1.6A1.6,1.6,0,0,0,22.4,0H1.6A1.6,1.6,0,0,0,0,1.6V22.4A1.6,1.6,0,0,0,1.6,24H22.4A1.6,1.6,0,0,0,24,22.4h0V19.2a1.6,1.6,0,0,0-1.6-1.6H6.4V6.4h16ZM21.6,20v1.6H2.4V2.4H21.6V4H4V20H21.6Z"/><path d="M22.4,8.8h-12a1.6,1.6,0,0,0-1.6,1.6h0v3.2a1.6,1.6,0,0,0,1.6,1.6h12A1.6,1.6,0,0,0,24,13.6h0V10.4A1.6,1.6,0,0,0,22.4,8.8Zm-0.8,4H11.2V11.2H21.6v1.6Z"/></svg>