<?xml version="1.0" encoding="utf-8"?>
<!-- Generator: Adobe Illustrator 20.0.0, SVG Export Plug-In . SVG Version: 6.00 Build 0)  -->
<svg version="1.1" id="Layer_1" xmlns="http://www.w3.org/2000/svg" xmlns:xlink="http://www.w3.org/1999/xlink" x="0px" y="0px"
	 viewBox="0 0 23 23" style="enable-background:new 0 0 23 23;" xml:space="preserve">
<title>icon_save</title>
<path d="M6.9,9.1l-1.8,1.8l6.4,6.4l6.4-6.4l-1.8-1.8l-3.3,3.3V0h-2.6v12.4L6.9,9.1z M23,20.4V2.6C23,1.2,21.9,0,20.5,0c0,0,0,0,0,0
	h-5.1v2.6h5.1v17.9H2.5V2.6h5.1V0H2.5C1.1,0,0,1.1,0,2.5c0,0,0,0,0,0v17.9C0,21.8,1.1,23,2.5,23h17.9C21.8,23,23,21.8,23,20.4z"/>
</svg>
