<svg id="Layer_1" data-name="Layer 1" xmlns="http://www.w3.org/2000/svg" viewBox="0 0 24 24"><defs><style>.cls-1{fill:#d52c28;}.cls-2{fill:#fff;}</style></defs><title>icon_pinRed</title><circle class="cls-1" cx="12" cy="12" r="12"/><path class="cls-2" d="M6.6,8.6V3.5S9.2,2.2,9.2.1A0.43,0.43,0,0,0,8.8-.3H-0.6A0.43,0.43,0,0,0-1,.1c0,2.1,2.6,3.4,2.6,3.4V8.6a3.07,3.07,0,0,0-3,2.6s0.7,0.3,4.3.4l0.4,5.1a0.9,0.9,0,0,0,1.8,0l0.4-5.1c3.6-.1,4.3-0.4,4.3-0.4S9.1,8.6,6.6,8.6Z" transform="translate(8 4)"/></svg>