<svg xmlns="http://www.w3.org/2000/svg" xmlns:xlink="http://www.w3.org/1999/xlink" version="1.1" x="0px" y="0px" viewBox="0 0 24 24" enable-background="new 0 0 24 24" xml:space="preserve"><path d="M20.5,2H18V1.354C18,0.607,17.327,0,16.5,0S15,0.607,15,1.354V2H9V1.354C9,0.607,8.327,0,7.5,0S6,0.607,6,1.354V2H3.5  C2.673,2,2,2.673,2,3.5v5v12v2C2,23.327,2.673,24,3.5,24h17c0.827,0,1.5-0.673,1.5-1.5v-7v-7v-5C22,2.673,21.327,2,20.5,2z M3,9h18  v6h-4.5c-0.827,0-1.5,0.673-1.5,1.5V21H3.5C3.224,21,3,20.776,3,20.5V9z M16,16.5c0-0.276,0.224-0.5,0.5-0.5h3.793L16,20.293V16.5z   M16,1.354C16,1.162,16.229,1,16.5,1S17,1.162,17,1.354v3.417c0,0.192-0.229,0.354-0.5,0.354S16,4.963,16,4.771V1.354z M7,1.354  C7,1.162,7.229,1,7.5,1S8,1.162,8,1.354v3.417c0,0.192-0.229,0.354-0.5,0.354S7,4.963,7,4.771V1.354z M3.5,3H6v1.771  c0,0.747,0.673,1.354,1.5,1.354S9,5.518,9,4.771V3h6v1.771c0,0.747,0.673,1.354,1.5,1.354S18,5.518,18,4.771V3h2.5  C20.776,3,21,3.224,21,3.5V8H3V3.5C3,3.224,3.224,3,3.5,3z M20.5,23h-17C3.224,23,3,22.776,3,22.5v-0.592  C3.157,21.964,3.324,22,3.5,22h12c0.065,0,0.13-0.013,0.191-0.039c0.059-0.024,0.111-0.06,0.156-0.104  c0.002-0.002,0.004-0.002,0.006-0.004L21,16.707V22.5C21,22.776,20.776,23,20.5,23z"></path></svg>