<svg xmlns="http://www.w3.org/2000/svg" viewBox="-293 385 24 24"><style type="text/css">  
  .st0{fill:none;}
</style><path d="m-281 387c-5.5 0-10 4.5-10 10 0 5.5 4.5 10 10 10 5.5 0 10-4.5 10-10 0-5.5-4.5-10-10-10zm0 18c-4.4 0-8-3.6-8-8 0-4.4 3.6-8 8-8 4.4 0 8 3.6 8 8 0 4.4-3.6 8-8 8z"/><path d="m-280.3 399.4c0-1.2 0.7-1.6 1.6-2.4 0.7-0.6 1.2-1.2 1.2-2.3 0-0.2-0.1-0.5-0.1-0.7-0.4-1-1.6-1.7-3.2-1.7-1.5 0-2.4 0.6-3 1.5-0.3 0.4-0.4 0.9-0.4 1.4l1.6 0c0-0.6 0.1-1.2 0.7-1.5 0.3-0.2 0.7-0.3 1.2-0.3 0.3 0 0.7 0.1 0.8 0.3 0.4 0.2 0.6 0.5 0.6 0.9 0 0.1 0 0.3 0 0.5 0 0.6-0.3 1-0.8 1.5-0.8 0.7-1.4 1.1-1.6 1.6-0.2 0.3-0.2 0.7-0.2 1.3l1.5 0zm0.1 2.5c0-0.5 0-1 0-1.5l-1.6 0 0 1.5 1.6 0z" style="-inkscape-font-specification:'.Helvetica LT MM, Normal';font-family:'.Helvetica LT MM';font-size:medium;letter-spacing:0px;line-height:100%;text-align:start;word-spacing:0px"/></svg>
 