<?xml version="1.0" encoding="UTF-8" standalone="no"?>
<!-- Generator: Adobe Illustrator 19.0.0, SVG Export Plug-In . SVG Version: 6.00 Build 0)  -->

<svg
   xmlns="http://www.w3.org/2000/svg"
   x="0px"
   y="0px"
   viewBox="-293 385 24 24"
   style="enable-background:new -293 385 24 24;"
   xml:space="preserve"
   
     id="layer1"
     ><rect
       style="fill-opacity:1;stroke:none;stroke-width:4;stroke-linecap:round;stroke-miterlimit:4;stroke-dasharray:none;stroke-opacity:1"
       id="rect4151"
       width="4.5"
       height="24"
       x="-293"
       y="385" /><rect
       style="fill-opacity:1;stroke:none;stroke-width:4;stroke-linecap:round;stroke-miterlimit:4;stroke-dasharray:none;stroke-opacity:1"
       id="rect4151-2"
       width="4.5"
       height="11.2"
       x="385"
       y="275.49991"
       transform="matrix(0,1,-1,0,0,0)" /><rect
       style="fill-opacity:1;stroke:none;stroke-width:4;stroke-linecap:round;stroke-miterlimit:4;stroke-dasharray:none;stroke-opacity:1"
       id="rect4151-2-7"
       width="4.5"
       height="11.2"
       x="391.5"
       y="275.49991"
       transform="matrix(0,1,-1,0,0,0)" /><rect
       style="fill-opacity:1;stroke:none;stroke-width:4;stroke-linecap:round;stroke-miterlimit:4;stroke-dasharray:none;stroke-opacity:1"
       id="rect4151-2-9"
       width="4.5"
       height="11.2"
       x="397.89999"
       y="275.49991"
       transform="matrix(0,1,-1,0,0,0)" /><rect
       style="fill-opacity:1;stroke:none;stroke-width:4;stroke-linecap:round;stroke-miterlimit:4;stroke-dasharray:none;stroke-opacity:1"
       id="rect4151-2-5"
       width="4.5"
       height="11.2"
       x="404.50003"
       y="275.49991"
       transform="matrix(0,1,-1,0,0,0)" /><rect
       style="fill-opacity:1;stroke:none;stroke-width:4;stroke-linecap:round;stroke-miterlimit:4;stroke-dasharray:none;stroke-opacity:1"
       id="rect4151-2-78"
       width="3.2"
       height="4.6999998"
       x="385"
       y="269.00003"
       transform="matrix(0,1,-1,0,0,0)" /><rect
       style="fill-opacity:1;stroke:none;stroke-width:4;stroke-linecap:round;stroke-miterlimit:4;stroke-dasharray:none;stroke-opacity:1"
       id="rect4151-2-78-1"
       width="3.2"
       height="4.6999998"
       x="390.20001"
       y="269.00003"
       transform="matrix(0,1,-1,0,0,0)" /><rect
       style="fill-opacity:1;stroke:none;stroke-width:4;stroke-linecap:round;stroke-miterlimit:4;stroke-dasharray:none;stroke-opacity:1"
       id="rect4151-2-78-0"
       width="3.2"
       height="4.6999998"
       x="395.39999"
       y="269.00003"
       transform="matrix(0,1,-1,0,0,0)" /><rect
       style="fill-opacity:1;stroke:none;stroke-width:4;stroke-linecap:round;stroke-miterlimit:4;stroke-dasharray:none;stroke-opacity:1"
       id="rect4151-2-78-6"
       width="3.2"
       height="4.6999998"
       x="400.60001"
       y="269"
       transform="matrix(0,1,-1,0,0,0)" /><rect
       style="fill-opacity:1;stroke:none;stroke-width:4;stroke-linecap:round;stroke-miterlimit:4;stroke-dasharray:none;stroke-opacity:1"
       id="rect4151-2-78-3"
       width="3.2"
       height="4.6999998"
       x="405.79999"
       y="269.00003"
       transform="matrix(0,1,-1,0,0,0)" /></svg>