<svg id="Layer_2" data-name="Layer 2" xmlns="http://www.w3.org/2000/svg" viewBox="0 0 23.92 17.62"><defs><style>.cls-1{fill:#7c7d7b;}.cls-2{fill:#c5afd5;}.cls-3{fill:#8ac888;}.cls-4{fill:#8dc4c1;}.cls-5{fill:#cc9898;}.cls-6{fill:#c0c0be;}.cls-7{fill:#e7be70;}</style></defs><title>icon_addCard</title><path class="cls-1" d="M21.78,3.19H2.22A2.13,2.13,0,0,0,0,5.26V18.74a2.13,2.13,0,0,0,2.17,2.07H21.78A2.13,2.13,0,0,0,24,18.74V5.26A2.13,2.13,0,0,0,21.78,3.19Z" transform="translate(-0.04 -3.19)"/><rect class="cls-2" x="2.38" y="2.56" width="8.58" height="2.83"/><rect class="cls-3" x="13.29" y="2.56" width="8.58" height="2.83"/><rect class="cls-4" x="2.21" y="7.39" width="8.58" height="2.83"/><rect class="cls-5" x="13.13" y="7.39" width="8.58" height="2.83"/><rect class="cls-6" x="2.21" y="12.23" width="8.58" height="2.83"/><rect class="cls-7" x="13.13" y="12.23" width="8.58" height="2.83"/></svg>