<svg xmlns="http://www.w3.org/2000/svg" xmlns:xlink="http://www.w3.org/1999/xlink" version="1.1" x="0px" y="0px" viewBox="0 0 32 32" enable-background="new 0 0 32 32" xml:space="preserve"><path d="M19.785,4.352l1.695,8.56l1.875-1.642c2.311,3.59,1.719,8.414-1.604,11.316c-2.229,1.96-5.187,2.57-7.875,1.908  l-0.84,3.396c3.75,0.93,7.896,0.062,11.021-2.688c4.771-4.175,5.521-11.219,1.938-16.279l2.021-1.775L19.785,4.352z M8.664,20.734  c-2.312-3.59-1.721-8.417,1.582-11.317c2.239-1.959,5.186-2.572,7.875-1.909l0.842-3.398C15.211,3.18,11.07,4.043,7.941,6.783  c-4.765,4.174-5.519,11.222-1.939,16.282l-2.026,1.771l8.26,2.812l-1.693-8.562L8.664,20.734z"></path></svg>