<svg xmlns:dc="http://purl.org/dc/elements/1.1/" xmlns:cc="http://creativecommons.org/ns#" xmlns:rdf="http://www.w3.org/1999/02/22-rdf-syntax-ns#" xmlns:svg="http://www.w3.org/2000/svg" xmlns="http://www.w3.org/2000/svg" xmlns:sodipodi="http://sodipodi.sourceforge.net/DTD/sodipodi-0.dtd" xmlns:inkscape="http://www.inkscape.org/namespaces/inkscape" version="1.1" x="0px" y="0px" viewBox="0 0 100 125"><g transform="translate(0,-952.36218)"><path style="text-indent:0;text-transform:none;direction:ltr;block-progression:tb;baseline-shift:baseline;color:#000000;enable-background:accumulate;" d="m 91.876251,962.34796 c -0.7675,0.046 -1.512,0.4016 -2.0313,0.9687 -10.7059,11.2012 -35.2444,37.52004 -47.0312,49.90634 l -14.8125,-13.0938 c -1.1781,-1.04724 -3.2028,-0.92814 -4.25,0.25 -1.0472,1.1781 -0.9281,3.2028 0.25,4.25 l 17,15 c 1.151,1.0116 3.101,0.9237 4.1562,-0.1875 11.1548,-11.6706 37.9325,-40.42054 49,-52.00004 0.8349,-0.8547 1.0803,-2.2323 0.5919,-3.3228 -0.4883,-1.0904 -1.6795,-1.8246 -2.8731,-1.7709 z m -86.8750002,7.0312 0,70.00004 c 2e-4,1.5708 1.4293,2.9998 3.0000003,3 l 69.9999999,0 c 1.5707,-2e-4 2.9998,-1.4292 3,-3 l 0,-35 c 0.022,-1.5849 -1.4149,-3.0427 -3,-3.0427 -1.5851,0 -3.0224,1.4578 -3,3.0427 l 0,32 -64,0 0,-64.00004 55,0 c 1.5849,0.022 3.0427,-1.4149 3.0427,-3 0,-1.5851 -1.4578,-3.0224 -3.0427,-3 l -57.9999999,0 c -1.6049003,0.01 -2.9671003,1.7358 -3.0000003,3 z" fill="#000000" fill-opacity="1" stroke="none" marker="none" visibility="visible" display="inline" overflow="visible"/></g></svg>