<?xml version="1.0" encoding="UTF-8"?>
<svg width="13px" height="13px" viewBox="0 0 13 13" version="1.1" xmlns="http://www.w3.org/2000/svg" xmlns:xlink="http://www.w3.org/1999/xlink">
    <!-- Generator: Sketch 50.2 (55047) - http://www.bohemiancoding.com/sketch -->
    <title>icon-bug</title>
    <desc>Created with Sketch.</desc>
    <defs></defs>
    <g id="Bug/Feedback-Button" stroke="none" stroke-width="1" fill="none" fill-rule="evenodd">
        <g id="Feedback/Bugs-|-Collapsed-State" transform="translate(-57.000000, -1115.000000)" fill="#6B6B6B">
            <g id="btn-bugs" transform="translate(51.000000, 1109.000000)">
                <g id="icon-bug" transform="translate(6.000000, 6.000000)">
                    <path d="M2.4791,12.2860404 C2.3648417,12.2860404 2.258711,12.2129154 2.221128,12.0986584 C1.523392,9.953138 1.728038,9.440288 2.48976,7.531368 L2.58726,7.286604 C2.6426114,7.147465 2.799524,7.07993 2.938663,7.135778 C3.077295,7.1911294 3.145337,7.348549 3.089996,7.487181 L2.992496,7.731945 C2.252614,9.584445 2.098746,9.970935 2.735538,11.9300354 C2.7817491,12.0717094 2.7040533,12.2240564 2.561871,12.2707784 C2.5349571,12.2814424 2.5060113,12.2860131 2.4790974,12.2860131 L2.4791,12.2860404 Z" id="Fill-1"></path>
                    <path d="M0.8125,9.34271 C0.663208,9.34271 0.54184,9.220835 0.54184,9.07205 L0.54184,8.61146 C0.54184,6.79861 1.177618,5.8032 2.60351,5.38538 C2.748746,5.3432314 2.897531,5.4254967 2.939677,5.56972 C2.9818256,5.713435 2.8995603,5.863234 2.755844,5.90538 C1.56858,6.254248 1.08313413,7.037797 1.08313413,8.61146 L1.08313413,9.07205 C1.08313413,9.220835 0.96125913,9.34271 0.81247413,9.34271 L0.8125,9.34271 Z" id="Fill-2"></path>
                    <path d="M2.7716,4.67194 C2.6969514,4.67194 2.622308,4.6404553 2.568475,4.5800261 L2.390232,4.3794361 C1.41219,3.2744361 1.082562,2.9027661 1.082562,1.2188761 L1.082562,0.9472021 C1.082562,0.7974031 1.2039287,0.6765421 1.353222,0.6765421 C1.502514,0.6765421 1.623882,0.7974018 1.623882,0.9472021 L1.623882,1.2188761 C1.623882,2.6976261 1.825993,2.9256461 2.794896,4.0199861 L2.973646,4.2220971 C3.0721613,4.3338165 3.0614974,4.5049511 2.9497793,4.6044791 C2.8989987,4.6496749 2.8345057,4.672018 2.7710293,4.672018 L2.7716,4.67194 Z" id="Fill-3"></path>
                    <path d="M10.57368,12.2860404 C10.5462578,12.2860404 10.5173133,12.2814701 10.4903981,12.2728376 C10.3471901,12.2256112 10.2705161,12.0727546 10.3162241,11.9315876 C10.9545501,9.9730072 10.8001751,9.5880772 10.0613071,7.7345372 L9.9617765,7.4877452 C9.9059168,7.3486062 9.9734557,7.1906692 10.1136165,7.1368492 C10.2527555,7.0814978 10.4096655,7.149545 10.4640055,7.2891962 L10.5630291,7.5354812 C11.3232301,9.4428412 11.5278761,9.9551712 10.8306471,12.1006917 C10.7961165,12.2129181 10.6889731,12.2860457 10.5741961,12.2860457 L10.57368,12.2860404 Z" id="Fill-4"></path>
                    <path d="M12.1875,9.34271 C12.038715,9.34271 11.91684,9.220835 11.91684,9.07205 L11.91684,8.61146 C11.91684,7.04288 11.431368,6.26288 10.24413,5.91396 C10.099908,5.8718114 10.018658,5.720988 10.060804,5.577793 C10.1019373,5.434585 10.253269,5.351814 10.395957,5.39396 C11.822447,5.812911 12.458147,6.80511 12.458147,8.61146 L12.458147,9.07205 C12.458147,9.220835 12.336272,9.34271 12.187487,9.34271 L12.1875,9.34271 Z" id="Fill-5"></path>
                    <path d="M10.04861,4.78764 C9.9851336,4.78764 9.9216572,4.7652956 9.86986,4.7201011 C9.7576336,4.6215858 9.7469697,4.4499481 9.845485,4.3377191 L10.152207,3.9934271 C11.042408,2.9996421 11.375533,2.6279071 11.375533,1.2176671 L11.375533,0.9470071 C11.375533,0.7972081 11.497408,0.6763471 11.646193,0.6763471 C11.794978,0.6763471 11.916853,0.7972068 11.916853,0.9470071 L11.916853,1.2186811 C11.916853,2.8356211 11.461853,3.3439211 10.556403,4.3554511 L10.250695,4.6967011 C10.1988978,4.7571303 10.1232339,4.7875997 10.048584,4.7875997 L10.04861,4.78764 Z" id="Fill-6"></path>
                    <path d="M6.62194,12.8654495 C6.58944,12.8654495 6.5574483,12.8644338 6.5254553,12.8624025 C6.5254553,12.8644338 6.4929553,12.8654495 6.4604553,12.8654495 C4.7790353,12.8654495 3.0967053,10.31368 2.6284453,7.05406 C2.3958623,5.50576 2.5964536,4.38802 3.2423963,3.63701 C3.8939173,2.880371 4.9872563,2.534038 6.5482963,2.573649 C6.6158352,2.5716171 6.6960673,2.5706018 6.7752893,2.5706018 C8.2204993,2.5706018 9.2224093,2.9194698 9.8399093,3.6364978 C10.4848263,4.3870398 10.6864303,5.5047278 10.4538603,7.0561478 C9.9861593,10.3127778 8.3027503,12.8655878 6.6218503,12.8655878 L6.62194,12.8654495 Z M6.5249483,12.3220885 L6.621433,12.3241197 C7.991503,12.3241197 9.500673,9.8754396 9.917193,6.9773496 C10.125908,5.5905096 9.965943,4.6144696 9.429693,3.9903396 C8.891415,3.3652216 7.936773,3.0803396 6.547853,3.1153746 C6.4574627,3.113344 6.381804,3.1123274 6.306638,3.1123274 C5.029492,3.1123274 4.161638,3.3997444 3.652818,3.9903344 C3.116061,4.6134244 2.956096,5.5905044 3.164811,6.9747444 C3.580707,9.8749144 5.089981,12.3230747 6.460571,12.3230747 L6.5250627,12.3215512 L6.5249483,12.3220885 Z" id="Fill-7"></path>
                    <path d="M8.68556,3.15458 L8.14372,3.15458 C8.14372,2.274545 7.424144,1.55701 6.54056,1.55701 C5.656456,1.55701 4.93792,2.273531 4.93792,3.15458 L4.39608,3.15458 C4.39608,1.975441 5.357872,1.01569 6.54056,1.01569 C7.723248,1.01569 8.68556,1.974947 8.68556,3.15458 Z" id="Fill-8"></path>
                    <path d="M7.82899,2.06882 C7.7177789,2.06882 7.614698,2.0007728 7.574073,1.889563 C7.5232924,1.748903 7.5964174,1.594021 7.738094,1.54323 C8.433295,1.291862 9.208654,0.835848 9.208654,0.581945 L9.208654,0.405223 C9.208654,0.255424 9.330529,0.134563 9.479314,0.134563 C9.628099,0.134563 9.749974,0.2554227 9.749974,0.405223 L9.749974,0.582452 C9.749974,1.336556 8.350394,1.899222 7.920874,2.053012 C7.8898976,2.0636759 7.8594282,2.0687537 7.8289601,2.0687537 L7.82899,2.06882 Z" id="Fill-9"></path>
                    <path d="M5.22899,2.09118 C5.1985206,2.09118 5.1670372,2.0861022 5.1375844,2.07493 C4.6952854,1.915979 3.2505044,1.336569 3.2505044,0.58253 L3.2505044,0.404794 C3.2505044,0.254995 3.3718711,0.134134 3.5211644,0.134134 C3.6704564,0.134134 3.7918244,0.2549937 3.7918244,0.404794 L3.7918244,0.582023 C3.7918244,0.828815 4.5992414,1.304641 5.3214044,1.566162 C5.4620644,1.6169426 5.5346824,1.772329 5.4839044,1.913002 C5.4432794,2.0221812 5.3391754,2.091245 5.2289874,2.091245 L5.22899,2.09118 Z" id="Fill-10"></path>
                </g>
            </g>
        </g>
    </g>
</svg>