<?xml version="1.0" encoding="utf-8"?>
<!-- Generator: Adobe Illustrator 19.1.0, SVG Export Plug-In . SVG Version: 6.00 Build 0)  -->
<svg version="1.1" id="Layer_1" xmlns="http://www.w3.org/2000/svg" xmlns:xlink="http://www.w3.org/1999/xlink" x="0px" y="0px"
	 viewBox="-8 -4 24 24" style="enable-background:new -8 -4 24 24;" xml:space="preserve">
<path d="M7.2,8.2V1.8c0,0,3.2-1.6,3.2-4.3c0-0.3-0.2-0.5-0.5-0.5H-1.9c-0.3,0-0.5,0.2-0.5,0.5c0,2.7,3.2,4.3,3.2,4.3v6.4
	c-3.2,0-3.8,3.2-3.8,3.2s0.9,0.4,5.4,0.5l0.5,6.4c0,0.6,0.5,1.1,1.1,1.1s1.1-0.5,1.1-1.1l0.5-6.4c4.5-0.1,5.4-0.5,5.4-0.5
	S10.4,8.2,7.2,8.2z"/>
</svg>
