<svg id="Layer_2" data-name="Layer 2" xmlns="http://www.w3.org/2000/svg" viewBox="0 0 18.81 19.34"><title>icon_splitScreen</title><path d="M18.7,10.8a7.53,7.53,0,0,0,.07-0.95A7.54,7.54,0,0,0,18.7,8.9l2-1.6a0.49,0.49,0,0,0,.12-0.62L18.92,3.34a0.49,0.49,0,0,0-.59-0.21l-2.41,1a7.06,7.06,0,0,0-1.63-.95L13.92,0.59A0.47,0.47,0,0,0,13.45.18H9.58a0.47,0.47,0,0,0-.47.41L8.74,3.15A7.43,7.43,0,0,0,7.1,4.1l-2.41-1a0.47,0.47,0,0,0-.59.21L2.17,6.69a0.48,0.48,0,0,0,.12.62l2,1.6a7.67,7.67,0,0,0-.07.95,7.67,7.67,0,0,0,.07.95l-2,1.6a0.49,0.49,0,0,0-.12.62l1.93,3.35a0.49,0.49,0,0,0,.59.21l2.41-1a7.06,7.06,0,0,0,1.63.95l0.37,2.56a0.47,0.47,0,0,0,.47.41h3.87a0.47,0.47,0,0,0,.47-0.41l0.37-2.56a7.43,7.43,0,0,0,1.63-.95l2.41,1a0.47,0.47,0,0,0,.59-0.21L20.85,13a0.49,0.49,0,0,0-.12-0.62Zm-7.18,2.44A3.38,3.38,0,1,1,14.9,9.85,3.39,3.39,0,0,1,11.51,13.23Z" transform="translate(-2.11 -0.18)"/></svg>