<svg
 xmlns="http://www.w3.org/2000/svg"
 viewBox="-293 385 24 24"
 x="0px"
 y="0px">
<path d="M-293,385h24v24h-24V385z" />
<path d="m -281,387 c -5.5,0 -10,4.5 -10,10 0,5.5 4.5,10 10,10 5.5,0 10,-4.5 10,-10 0,-5.5 -4.5,-10 -10,-10 z m 0,18 c -4.4,0 -8,-3.6 -8,-8 0,-4.4 3.6,-8 8,-8 4.4,0 8,3.6 8,8 0,4.4 -3.6,8 -8,8 z" />
<path d="m -280.34582,399.43989 c -0.0437,-1.15522 0.66918,-1.59953 1.64384,-2.43738 0.69828,-0.58396 1.22198,-1.15523 1.22198,-2.25967 0,-0.2412 -0.0582,-0.4697 -0.14548,-0.67282 -0.40732,-1.04097 -1.58565,-1.71379 -3.20039,-1.71379 -1.46928,0 -2.44394,0.62204 -2.95309,1.51068 -0.26186,0.40623 -0.37824,0.90132 -0.36369,1.40911 l 1.5711,0 c -0.0146,-0.63474 0.14548,-1.23139 0.68373,-1.52337 0.2764,-0.19042 0.65462,-0.33006 1.19288,-0.33006 0.33457,0 0.65462,0.0888 0.82918,0.26659 0.36368,0.20312 0.56734,0.54587 0.64008,0.90133 0.0437,0.13964 0.0437,0.30467 0.0291,0.45701 -0.0291,0.64743 -0.33459,0.9775 -0.82919,1.47259 -0.8292,0.7236 -1.36745,1.12983 -1.6293,1.59954 -0.17456,0.30467 -0.2182,0.67282 -0.20366,1.32024 l 1.51291,0 z m 0.0582,2.45009 c 0,-0.4824 0,-0.97749 0,-1.45989 l -1.6002,0 0,1.45989 1.6002,0 z" />
</svg>