<svg id="Layer_1" data-name="Layer 1" xmlns="http://www.w3.org/2000/svg" viewBox="0 0 20.19 16.72"><title>icon_home</title><polygon points="2.65 9.72 2.65 16.73 8.15 16.73 8.15 12.32 12.05 12.32 12.05 16.73 17.25 16.73 17.25 9.72 10.05 3.73 2.65 9.72"/><path d="M21.66,11.36l-2.2-1.8V4.06h-3.4v2.7l-3.5-2.9a0.91,0.91,0,0,0-1.2,0l-9.1,7.4a1,1,0,0,0-.1,1.4,1,1,0,0,0,1.4.1l8.5-6.9,8.6,6.9a1.42,1.42,0,0,0,.6.2,0.91,0.91,0,0,0,.8-0.4A1.26,1.26,0,0,0,21.66,11.36Z" transform="translate(-1.9 -3.64)"/></svg>