<svg id="Layer_1" data-name="Layer 1" xmlns="http://www.w3.org/2000/svg" viewBox="0 0 24 24"><defs><style>.cls-1{fill:#0f0f0f;}</style></defs><title>icon_moreCircle</title><path class="cls-1" d="M6.56,10.19A1.81,1.81,0,1,0,8.38,12,1.82,1.82,0,0,0,6.56,10.19Zm10.88,0A1.81,1.81,0,1,0,19.25,12,1.82,1.82,0,0,0,17.44,10.19Zm-5.44,0A1.81,1.81,0,1,0,13.81,12,1.82,1.82,0,0,0,12,10.19Z"/><path class="cls-1" d="M12,0A12,12,0,1,0,24,12,12,12,0,0,0,12,0Zm0,21.73A9.73,9.73,0,1,1,21.73,12,9.73,9.73,0,0,1,12,21.73Z"/></svg>