<svg id="Layer_1" data-name="Layer 1" xmlns="http://www.w3.org/2000/svg" viewBox="0 0 23.92 24.06"><title>icon_expand</title><path d="M-6.1,20a1.57,1.57,0,0,1-1.3-.6,1.87,1.87,0,0,1,0-2.6L1.5,7.9-7.2-.8a1.9,1.9,0,0,1-.1-2.7,1.78,1.78,0,0,1,2.6,0L5.4,6.6A2.23,2.23,0,0,1,6,7.9a1.47,1.47,0,0,1-.6,1.3L-4.8,19.4A1.7,1.7,0,0,1-6.1,20Z" transform="translate(7.92 4.06)"/><path d="M3.9,20a1.57,1.57,0,0,1-1.3-.6,1.87,1.87,0,0,1,0-2.6l8.9-8.9L2.7-.8a2,2,0,0,1,0-2.7,1.78,1.78,0,0,1,2.6,0L15.4,6.6A2.23,2.23,0,0,1,16,7.9a1.47,1.47,0,0,1-.6,1.3L5.2,19.4A1.29,1.29,0,0,1,3.9,20Z" transform="translate(7.92 4.06)"/></svg>