<svg xmlns="http://www.w3.org/2000/svg" width="512" height="512" viewBox="0 0 512 512"><path d="M161 160.5h192c-1.7-20-9.7-35.4-27.9-40.4 -0.4-0.1-1.1-0.4-1.6-0.5 -12-3.4-21-7.7-21-20.8V78.2C302.5 52.7 282 32 256.5 32c-25.5 0-46 20.7-46 46.2v20.6c0 13.1-8.6 17.2-20.6 20.6 -0.4 0.1-0.8 0.6-1.3 0.7C170.4 125.1 162.9 140.5 161 160.5zM257 64.4c7.6 0 13.8 6.2 13.8 13.8 0 7.7-6.2 13.9-13.8 13.9 -7.6 0-13.8-6.2-13.8-13.8C243.2 70.6 249.4 64.4 257 64.4z"/><path d="M405.6 63.5H331.5v14c0 10.6 9.2 19 19.5 19h37.2c6.7 0 12.1 5.4 12.4 12.2l0.1 327.1c-0.3 6.4-5.3 11.5-11.5 12l-264.4 0c-6.2-0.5-11.1-5.7-11.5-12.1l-0.1-327c0.3-6.8 5.9-12.2 12.5-12.2h37.2c10.3 0 18.5-8.4 18.5-19V63.5h-73.1C93.3 63.5 80.5 76.1 80.5 91.6v360.4c0 15.5 12.8 28.5 27.9 28.5H257h148.6c15.1 0 26.9-13 26.9-28.5V91.6C432.5 76.1 420.7 63.5 405.6 63.5z"/><rect x="144.5" y="192.5" width="112" height="32"/><rect x="144.5" y="384.5" width="160" height="32"/><rect x="144.5" y="320.5" width="129" height="32"/><rect x="144.5" y="256.5" width="208" height="32"/></svg>