<?xml version="1.0" encoding="utf-8"?>
<!-- Generator: Adobe Illustrator 19.1.0, SVG Export Plug-In . SVG Version: 6.00 Build 0)  -->
<svg version="1.1" id="Layer_1" xmlns="http://www.w3.org/2000/svg" xmlns:xlink="http://www.w3.org/1999/xlink" x="0px" y="0px"
	 viewBox="-8 -4 24 24" style="enable-background:new -8 -4 24 24;" xml:space="preserve">
<style type="text/css">.icon-pin-st0{fill:#D52C28;}.icon-pin-st1{fill:#FFFFFF;}</style>
<circle class="icon-pin-st0" cx="4" cy="8" r="12"/>
<path class="icon-pin-st1" d="M6.6,8.6V3.5c0,0,2.6-1.3,2.6-3.4c0-0.2-0.2-0.4-0.4-0.4h-9.4c-0.2,0-0.4,0.2-0.4,0.4c0,2.1,2.6,3.4,2.6,3.4
	v5.1c-2.6,0-3,2.6-3,2.6s0.7,0.3,4.3,0.4l0.4,5.1c0,0.5,0.4,0.9,0.9,0.9s0.9-0.4,0.9-0.9l0.4-5.1c3.6-0.1,4.3-0.4,4.3-0.4
	S9.1,8.6,6.6,8.6z"/>
</svg>
