<svg id="Layer_1" data-name="Layer 1" xmlns="http://www.w3.org/2000/svg" viewBox="0 0 9.62 14.49"><title>icon_handle</title><path d="M3.62,1.768a1.81,1.81,0,1,0-1.81,1.82A1.81,1.81,0,0,0,3.62,1.768Zm0,10.88a1.81,1.81,0,1,0-1.81,1.81A1.81,1.81,0,0,0,3.62,12.648Zm0-5.44a1.81,1.81,0,1,0-1.81,1.81A1.81,1.81,0,0,0,3.62,7.208Z" transform="translate(0 0.032)" style="fill:#0f0f0f"/><path d="M9.62,1.768a1.81,1.81,0,1,0-1.81,1.82A1.81,1.81,0,0,0,9.62,1.768Zm0,10.88a1.81,1.81,0,1,0-1.81,1.81A1.81,1.81,0,0,0,9.62,12.648Zm0-5.44a1.81,1.81,0,1,0-1.81,1.81A1.81,1.81,0,0,0,9.62,7.208Z" transform="translate(0 0.032)" style="fill:#0f0f0f"/></svg>