<svg id="Layer_1" data-name="Layer 1" xmlns="http://www.w3.org/2000/svg" viewBox="0 0 19.3 14.62"><title>icon_tql</title><path d="M16.55,17.41a1.42,1.42,0,0,1-.6-0.2,0.78,0.78,0,0,1,0-1.1l3.9-3.9L16,8.31A0.78,0.78,0,0,1,17,7.21l4.4,4.4a0.73,0.73,0,0,1,.2.6,1.42,1.42,0,0,1-.2.6L17,17.31A1,1,0,0,1,16.55,17.41Z" transform="translate(-2.35 -4.69)"/><path d="M7.65,17.41a1.42,1.42,0,0,1-.6-0.2l-4.5-4.5a0.73,0.73,0,0,1-.2-0.6,1.42,1.42,0,0,1,.2-0.6L7,7.11A0.78,0.78,0,0,1,8,8.21l-3.9,3.9L8,16a0.78,0.78,0,0,1,0,1.1C8.15,17.31,7.85,17.41,7.65,17.41Z" transform="translate(-2.35 -4.69)"/><path d="M10.35,19.31h-0.2a0.89,0.89,0,0,1-.6-1l3.6-13a0.82,0.82,0,1,1,1.6.4l-3.6,13A0.84,0.84,0,0,1,10.35,19.31Z" transform="translate(-2.35 -4.69)"/></svg>