<svg id="Lock" xmlns="http://www.w3.org/2000/svg" viewBox="0 0 338.29 444"><defs><style>.cls-1{}</style></defs><title>icon_templateGrid</title><path class="cls-1" d="M440.64,251.5H419.5V209.21a105.71,105.71,0,0,0-211.43,0V251.5H186.93a42.41,42.41,0,0,0-42.29,42.29V505.21a42.41,42.41,0,0,0,42.29,42.29H440.64a42.41,42.41,0,0,0,42.29-42.29V293.79A42.41,42.41,0,0,0,440.64,251.5ZM313.79,441.79a42.29,42.29,0,1,1,42.29-42.29A42.41,42.41,0,0,1,313.79,441.79ZM379.33,251.5H248.24V209.21a65.54,65.54,0,0,1,131.09,0V251.5Z" transform="translate(-144.64 -103.5)"/></svg>