<svg id="Layer_4" data-name="Layer 4" xmlns="http://www.w3.org/2000/svg" viewBox="0 0 23.69 18.96"><defs><style>.cls-1{fill:#828382;}</style></defs><title>icon_builder_13x13 [Recovered]</title><path class="cls-1" d="M2.07,10.19A1.92,1.92,0,1,0,4,12.11,1.92,1.92,0,0,0,2.07,10.19Zm0-7.67A1.92,1.92,0,1,0,4,4.44,1.92,1.92,0,0,0,2.07,2.52Zm0,15.56a1.7,1.7,0,1,0,1.7,1.7A1.7,1.7,0,0,0,2.07,18.08Zm3.84,3H23.85V18.5H5.92v2.56Zm0-7.67H23.85V10.83H5.92v2.56Zm0-10.23V5.72H23.85V3.16H5.92Z" transform="translate(-0.15 -2.52)"/></svg>