<?xml version="1.0" encoding="utf-8"?>
<!-- Generator: Adobe Illustrator 19.1.0, SVG Export Plug-In . SVG Version: 6.00 Build 0)  -->
<svg version="1.1" id="Layer_1" xmlns="http://www.w3.org/2000/svg" xmlns:xlink="http://www.w3.org/1999/xlink" x="0px" y="0px"
	 viewBox="-1001 851 507 98" style="enable-background:new -1001 851 507 98;" xml:space="preserve">
<style type="text/css">
	.st0{enable-background:new    ;}
	.st1{clip-path:url(#SVGID_2_);}
	.st2{clip-path:url(#SVGID_4_);}
	.st3{clip-path:url(#SVGID_6_);fill:#EDF0E9;}
	.st4{clip-path:url(#SVGID_8_);}
	.st5{clip-path:url(#SVGID_10_);fill:#EDF0E9;}
	.st6{clip-path:url(#SVGID_12_);}
	.st7{clip-path:url(#SVGID_14_);fill:#EDF0E9;}
	.st8{clip-path:url(#SVGID_16_);}
	.st9{clip-path:url(#SVGID_18_);fill:#EDF0E9;}
	.st10{clip-path:url(#SVGID_20_);}
	.st11{clip-path:url(#SVGID_22_);fill:#EDF0E9;}
	.st12{clip-path:url(#SVGID_24_);}
	.st13{clip-path:url(#SVGID_26_);fill:#EDF0E9;}
	.st14{clip-path:url(#SVGID_28_);}
	.st15{clip-path:url(#SVGID_30_);fill:#EDF0E9;}
	.st16{clip-path:url(#SVGID_32_);}
	.st17{clip-path:url(#SVGID_34_);fill:#EDF0E9;}
</style>
<g class="st0">
	<g>
		<defs>
			<rect id="SVGID_1_" x="-992.9" y="860.7" width="488.7" height="80.7"/>
		</defs>
		<clipPath id="SVGID_2_">
			<use xlink:href="#SVGID_1_"  style="overflow:visible;"/>
		</clipPath>
		<g class="st1">
			<defs>
				<path id="SVGID_3_" d="M-504.1,872.1h-13.2v34.9c-2-3.1-4.2-6.3-6.6-9.6c-2.4-3.3-4.6-6.6-7-9.6c-2.4-3.1-4.6-6-6.9-8.8
					c-2.3-2.7-4.4-5-6.2-6.9H-555v59.1h13.1v-38.7c5,5.9,9.7,12.1,14.2,18.7c4.5,6.6,8.6,13.3,12.4,20.1h11.1V872.1z"/>
			</defs>
			<clipPath id="SVGID_4_">
				<use xlink:href="#SVGID_3_"  style="overflow:visible;"/>
			</clipPath>
			<g class="st2">
				<defs>
					<rect id="SVGID_5_" x="-992.9" y="860.7" width="488.7" height="80.7"/>
				</defs>
				<clipPath id="SVGID_6_">
					<use xlink:href="#SVGID_5_"  style="overflow:visible;"/>
				</clipPath>
				<rect x="-557.5" y="869.4" class="st3" width="55.9" height="64.2"/>
			</g>
		</g>
		<g class="st1">
			<defs>
				<rect id="SVGID_7_" x="-579" y="872.1" width="13.3" height="59.1"/>
			</defs>
			<clipPath id="SVGID_8_">
				<use xlink:href="#SVGID_7_"  style="overflow:visible;"/>
			</clipPath>
			<g class="st4">
				<defs>
					<rect id="SVGID_9_" x="-992.9" y="860.7" width="488.7" height="80.7"/>
				</defs>
				<clipPath id="SVGID_10_">
					<use xlink:href="#SVGID_9_"  style="overflow:visible;"/>
				</clipPath>
				<rect x="-581.6" y="869.5" class="st5" width="18.4" height="64.2"/>
			</g>
		</g>
		<g class="st1">
			<defs>
				<path id="SVGID_11_" d="M-614.2,889c0.6,1.5,1.2,3.2,2,5.1c0.8,1.9,1.6,4,2.5,6.4c0.9,2.4,1.8,4.8,2.6,7.4H-624
					c1-2.5,1.8-5,2.7-7.4c0.9-2.4,1.8-4.5,2.5-6.4c0.7-1.9,1.4-3.7,1.9-5.1c0.6-1.5,1-2.6,1.3-3.5
					C-615.1,886.4-614.7,887.5-614.2,889z M-585.3,931.2c-2.2-6.4-4.4-12.3-6.3-17.7c-2-5.4-3.9-10.5-5.9-15.2
					c-1.9-4.8-3.9-9.3-5.7-13.6c-1.9-4.3-3.8-8.5-5.8-12.6h-12.6c-2,4.1-3.9,8.3-5.8,12.6c-1.8,4.3-3.8,8.8-5.6,13.6
					c-1.9,4.8-3.9,9.9-5.9,15.2c-2,5.4-4.1,11.3-6.3,17.7h13.8c0.6-2,1.3-4.1,2.1-6.3c0.8-2.2,1.5-4.3,2.3-6.5h23
					c0.8,2.1,1.5,4.3,2.3,6.5c0.8,2.2,1.5,4.3,2.1,6.3H-585.3z"/>
			</defs>
			<clipPath id="SVGID_12_">
				<use xlink:href="#SVGID_11_"  style="overflow:visible;"/>
			</clipPath>
			<g class="st6">
				<defs>
					<rect id="SVGID_13_" x="-992.9" y="860.7" width="488.7" height="80.7"/>
				</defs>
				<clipPath id="SVGID_14_">
					<use xlink:href="#SVGID_13_"  style="overflow:visible;"/>
				</clipPath>
				<rect x="-647.7" y="869.5" class="st7" width="64.9" height="64.2"/>
			</g>
		</g>
		<g class="st1">
			<defs>
				<path id="SVGID_15_" d="M-670.8,884.6c2.2,1.2,3.2,3.2,3.2,6.2c0,3-1.1,5.2-3.2,6.4c-2.2,1.2-5.8,1.8-10.8,1.8h-3.8v-16
					c0.7-0.1,1.4-0.1,2.2-0.2s1.7-0.1,2.6-0.1C-676.2,882.8-673,883.4-670.8,884.6z M-689.5,871.8c-3.1,0.3-6.1,0.6-9,1.2v58.2h13.3
					v-21.5h6.6c1.1,1.4,2.3,2.9,3.4,4.6c1.1,1.7,2.3,3.4,3.5,5.3c1.1,1.8,2.3,3.8,3.4,5.8c1.1,2,2.2,3.9,3.3,5.9h14.9
					c-1.1-2.2-2.1-4.4-3.3-6.6c-1.2-2.3-2.5-4.4-3.7-6.5c-1.3-2.1-2.5-4-3.9-6c-1.3-1.9-2.5-3.6-3.8-5.1c3.6-1.5,6.3-3.5,8.2-6.1
					c1.9-2.6,2.9-6,2.9-10.1c0-6.7-2.4-11.6-7.1-14.7c-4.7-3.2-11.5-4.7-20.4-4.7C-683.6,871.5-686.4,871.6-689.5,871.8z"/>
			</defs>
			<clipPath id="SVGID_16_">
				<use xlink:href="#SVGID_15_"  style="overflow:visible;"/>
			</clipPath>
			<g class="st8">
				<defs>
					<rect id="SVGID_17_" x="-992.9" y="860.7" width="488.7" height="80.7"/>
				</defs>
				<clipPath id="SVGID_18_">
					<use xlink:href="#SVGID_17_"  style="overflow:visible;"/>
				</clipPath>
				<rect x="-701.1" y="869" class="st9" width="53.6" height="64.9"/>
			</g>
		</g>
		<g class="st1">
			<defs>
				<path id="SVGID_19_" d="M-726.4,884.6c2.2,1.2,3.2,3.2,3.2,6.2c0,3-1.1,5.2-3.2,6.4c-2.2,1.2-5.8,1.8-10.8,1.8h-3.8v-16
					c0.7-0.1,1.4-0.1,2.2-0.2c0.8-0.1,1.7-0.1,2.6-0.1C-731.8,882.8-728.6,883.4-726.4,884.6z M-745.1,871.8c-3.1,0.3-6.1,0.6-9,1.2
					v58.2h13.3v-21.5h6.6c1.1,1.4,2.3,2.9,3.4,4.6c1.1,1.7,2.3,3.4,3.5,5.3c1.1,1.8,2.3,3.8,3.4,5.8c1.1,2,2.2,3.9,3.3,5.9h14.9
					c-1.1-2.2-2.1-4.4-3.3-6.6c-1.2-2.3-2.5-4.4-3.7-6.5c-1.3-2.1-2.5-4-3.9-6c-1.3-1.9-2.5-3.6-3.8-5.1c3.6-1.5,6.3-3.5,8.2-6.1
					c1.9-2.6,2.9-6,2.9-10.1c0-6.7-2.4-11.6-7.1-14.7c-4.7-3.2-11.5-4.7-20.4-4.7C-739.3,871.5-742.1,871.6-745.1,871.8z"/>
			</defs>
			<clipPath id="SVGID_20_">
				<use xlink:href="#SVGID_19_"  style="overflow:visible;"/>
			</clipPath>
			<g class="st10">
				<defs>
					<rect id="SVGID_21_" x="-992.9" y="860.7" width="488.7" height="80.7"/>
				</defs>
				<clipPath id="SVGID_22_">
					<use xlink:href="#SVGID_21_"  style="overflow:visible;"/>
				</clipPath>
				<rect x="-756.7" y="869" class="st11" width="53.6" height="64.9"/>
			</g>
		</g>
		<g class="st1">
			<defs>
				<polygon id="SVGID_23_" points="-763,920.1 -791.6,920.1 -791.6,905.8 -767.9,905.8 -767.9,894.9 -791.6,894.9 -791.6,883.3 
					-764.9,883.3 -764.9,872.1 -804.9,872.1 -804.9,931.2 -763,931.2 				"/>
			</defs>
			<clipPath id="SVGID_24_">
				<use xlink:href="#SVGID_23_"  style="overflow:visible;"/>
			</clipPath>
			<g class="st12">
				<defs>
					<rect id="SVGID_25_" x="-992.9" y="860.7" width="488.7" height="80.7"/>
				</defs>
				<clipPath id="SVGID_26_">
					<use xlink:href="#SVGID_25_"  style="overflow:visible;"/>
				</clipPath>
				<rect x="-807.4" y="869.5" class="st13" width="47" height="64.2"/>
			</g>
		</g>
		<g class="st1">
			<defs>
				<polygon id="SVGID_27_" points="-862.5,883.5 -844.8,883.5 -844.8,931.2 -831.4,931.2 -831.4,883.5 -813.6,883.5 -813.6,872.1 
					-862.5,872.1 				"/>
			</defs>
			<clipPath id="SVGID_28_">
				<use xlink:href="#SVGID_27_"  style="overflow:visible;"/>
			</clipPath>
			<g class="st14">
				<defs>
					<rect id="SVGID_29_" x="-992.9" y="860.7" width="488.7" height="80.7"/>
				</defs>
				<clipPath id="SVGID_30_">
					<use xlink:href="#SVGID_29_"  style="overflow:visible;"/>
				</clipPath>
				<rect x="-865.1" y="869.5" class="st15" width="54.1" height="64.2"/>
			</g>
		</g>
		<g class="st1">
			<defs>
				<path id="SVGID_31_" d="M-964.6,908.4l-28.3,32.9h11.5l22.2-31.2L-964.6,908.4z M-944.1,892l-31.5,49.3h20.1l17.8-45.8
					L-944.1,892z M-924.1,861.1l-22.9,80.2h91.7L-924.1,861.1z"/>
			</defs>
			<clipPath id="SVGID_32_">
				<use xlink:href="#SVGID_31_"  style="overflow:visible;"/>
			</clipPath>
			<g class="st16">
				<defs>
					<rect id="SVGID_33_" x="-992.9" y="860.7" width="488.7" height="80.7"/>
				</defs>
				<clipPath id="SVGID_34_">
					<use xlink:href="#SVGID_33_"  style="overflow:visible;"/>
				</clipPath>
				<rect x="-995.4" y="858.5" class="st17" width="142.6" height="85.3"/>
			</g>
		</g>
	</g>
</g>
</svg>
