<svg id="Layer_2" data-name="Layer 2" xmlns="http://www.w3.org/2000/svg" viewBox="0 0 24 24"><title>icon_resultsDropdown</title><path d="M9.6,0h-8A1.6,1.6,0,0,0,0,1.6H0v8a1.6,1.6,0,0,0,1.6,1.6h8a1.6,1.6,0,0,0,1.6-1.6h0v-8A1.6,1.6,0,0,0,9.6,0h0ZM8.8,8.8H2.4V2.4H8.8V8.8Z"/><path d="M22.4,0h-8a1.6,1.6,0,0,0-1.6,1.6h0v8a1.6,1.6,0,0,0,1.6,1.6h8A1.6,1.6,0,0,0,24,9.6h0v-8A1.6,1.6,0,0,0,22.4,0h0ZM21.6,8.8H15.2V2.4h6.4V8.8Z"/><path d="M9.6,12.8h-8A1.6,1.6,0,0,0,0,14.4v8A1.6,1.6,0,0,0,1.6,24h8a1.6,1.6,0,0,0,1.6-1.6h0v-8A1.6,1.6,0,0,0,9.6,12.8ZM8.8,21.6H2.4V15.2H8.8v6.4Z"/><path d="M22.4,12.8h-8a1.6,1.6,0,0,0-1.6,1.6h0v8A1.6,1.6,0,0,0,14.4,24h8A1.6,1.6,0,0,0,24,22.4h0v-8A1.6,1.6,0,0,0,22.4,12.8Zm-0.8,8.8H15.2V15.2h6.4v6.4Z"/></svg>