<svg xmlns="http://www.w3.org/2000/svg" xmlns:xlink="http://www.w3.org/1999/xlink" version="1.0" x="0px" y="0px" viewBox="0 0 100 125" enable-background="new 0 0 100 100" xml:space="preserve"><polygon points="26.3707333,75.0847855 31.8236408,84.2149887 12.2183876,84.2149887 14.8030024,55.72118 "/><polygon points="73.2195129,75.6206207 86.9936218,75.6206207 87.7816162,84.2149887 78.8930588,84.2149887 "/><path d="M41.6787987,52.3170547c-3.2570343-6.3039398-5.642025-12.3767357-5.642025-16.4322701  c0-5.5684814,2.1853676-10.6011257,5.7155724-14.2258911c12.1876183-12.565855,33.1587257-3.6457787,33.1587257,14.2258911  c0,10.0547829-14.0577888,31.1939964-19.437149,38.3489647C51.5970001,69.0855331,45.9234543,60.5647087,41.6787987,52.3170547z   M55.4739227,24.3590794c-5.3898697,0-9.9392128,4.2446537-9.9392128,9.6240177  c0,8.4998093,10.6536598,12.8600349,16.9365845,6.8292656C68.775238,34.760582,64.2784271,24.3590794,55.4739227,24.3590794z"/><polygon points="69.5842438,60.0393791 74.1756134,51.4134903 84.8082581,51.4450073 85.5857391,60.0393791 "/><path d="M66.4112549,65.2926636c0.2626648-0.4202652,0.5253296-0.8405228,0.7879944-1.2712936l18.7542191,0.0210114  l0.68293,7.5857391H70.5823669L66.4112549,65.2926636z"/><path d="M42.8450279,62.5399437c4.0240173,6.6716728,8.30019,12.7234535,11.0529099,16.1590996  c0.7879906,1.0086288,2.321949,1.0401459,3.1309547,0.031517c1.8386497-2.2799225,4.34972-5.7470932,7.0183868-9.7816086  l10.075798,15.266037H36.4675446l-5.894186-9.8656616L42.8450279,62.5399437z"/><polygon points="36.7722321,51.4134903 40.7752342,58.9992294 28.4720459,70.8401337 16.8833027,51.4450073 "/></svg>