<?xml version="1.0" encoding="utf-8"?>
<!-- Generator: Adobe Illustrator 19.1.0, SVG Export Plug-In . SVG Version: 6.00 Build 0)  -->
<svg version="1.1" id="Layer_1" xmlns="http://www.w3.org/2000/svg" xmlns:xlink="http://www.w3.org/1999/xlink" x="0px" y="0px"
	 viewBox="-887 889 24 24" style="enable-background:new -887 889 24 24;" xml:space="preserve">
<style type="text/css">
	.st0{fill:#000000}
</style>
<path class="st0" d="M-881,899c-1.1,0-2,0.9-2,2s0.9,2,2,2s2-0.9,2-2S-879.9,899-881,899z M-869,899c-1.1,0-2,0.9-2,2s0.9,2,2,2
	s2-0.9,2-2S-867.9,899-869,899z M-875,899c-1.1,0-2,0.9-2,2s0.9,2,2,2s2-0.9,2-2S-873.9,899-875,899z"/>
</svg>
