<svg xmlns="http://www.w3.org/2000/svg" xmlns:xlink="http://www.w3.org/1999/xlink" viewBox="0 0 80 80" version="1.1" x="0px" y="0px"><title>arrow-right</title><desc>Created with Sketch.</desc><g stroke="none" stroke-width="1" fill-rule="evenodd"><path d="M40,0 C18.3187302,0 0,18.3187302 0,40 C0,61.6812698 18.3187302,80 40,80 C61.6812698,80 80,61.6812698 80,40 C80,18.3187302 61.6812698,0 40,0 L40,0 Z M40,76.1904762 C20.3822222,76.1904762 3.80952381,59.6177778 3.80952381,40 C3.80952381,20.3822222 20.3822222,3.80952381 40,3.80952381 C59.6177778,3.80952381 76.1904762,20.3822222 76.1904762,40 C76.1904762,59.6177778 59.6177778,76.1904762 40,76.1904762 Z M40.5012245,47.6849612 L26.5144783,33.5241969 C25.8276373,32.8288105 24.7088128,32.8277946 24.0193618,33.5258235 C23.325104,34.228719 23.3291914,35.3548527 24.0177552,36.0519834 L39.2544695,51.4782675 C39.5976233,51.8256906 40.0486052,51.9997907 40.4999963,51.9999848 C40.9541771,52.0018795 41.403963,51.826564 41.7479794,51.4782675 L56.9846938,36.0519834 C57.6715347,35.356597 57.6725382,34.2238525 56.9830872,33.5258235 C56.2888294,32.822928 55.1765344,32.8270663 54.4879707,33.5241969 L40.5012245,47.6849612 Z" transform="translate(40.000000, 40.000000) rotate(-90.000000) translate(-40.000000, -40.000000) "/></g></svg>