<svg xmlns="http://www.w3.org/2000/svg" viewBox="0 0 558 558"><title>logo_mountainCircle</title><g id="Circle"><circle cx="279" cy="279" r="279" style="fill:#7b8f30"/><circle cx="279" cy="279" r="243" style="fill:#f0f4df"/></g><g id="Mountain"><g id="Mountain3"><path id="Silhouette" d="M200.607,418.98l.007-.01,53.051-74.191a7.992,7.992,0,1,0-12.767-9.616l-63.423,74.061a7.991,7.991,0,0,0,6,13.275h10.5a7.991,7.991,0,0,0,6.625-3.516h0Z" transform="translate(-81.301 -72)" style="fill:#748419"/><path id="Bottom" d="M200.6,418.984h0l0,0,.007-.01,15.19-21.244-33.6,8.873v.01a8,8,0,0,0-4.73,2.609l-.005.006a7.988,7.988,0,0,0-1.852,3.767l-.007.03c-.04.21-.067.424-.09.64,0,.031-.01.06-.013.091q-.034.369-.035.747a8,8,0,0,0,8,8h10.5A7.991,7.991,0,0,0,200.6,418.984Z" transform="translate(-81.301 -72)" style="fill:#4d6629"/><path id="Top" d="M182.21,406.61v-.01l33.6-8.873,37.86-52.947a7.992,7.992,0,1,0-12.767-9.616L177.48,409.219A8,8,0,0,1,182.21,406.61Z" transform="translate(-81.301 -72)" style="fill:#748419"/></g><g id="Mountain2"><path id="Silhouette-2" data-name="Silhouette" d="M316.814,301.53a7.972,7.972,0,0,0-3.664-10.507l0,0-4.645-2.584h0a7.982,7.982,0,0,0-10.681,2.753l-.011,0L221.95,410.027h0a8,8,0,0,0,6.635,12.471h35.938a8,8,0,0,0,7.677-5.762h0Z" transform="translate(-81.301 -72)" style="fill:#748419"/><path id="Bottom-2" data-name="Bottom" d="M272.2,416.738h0l14.626-37.767L232.64,393.281l-10.69,16.746h0a8,8,0,0,0,6.635,12.471h35.938A8,8,0,0,0,272.2,416.738Z" transform="translate(-81.301 -72)" style="fill:#4d6629"/><path id="Top-2" data-name="Top" d="M316.814,301.53a7.972,7.972,0,0,0-3.664-10.507l0,0-4.645-2.584h0a7.982,7.982,0,0,0-10.681,2.753l-.011,0L232.64,393.281l54.185-14.312Z" transform="translate(-81.301 -72)" style="fill:#748419"/></g><g id="Mountain1"><path id="Silhouette-3" data-name="Silhouette" d="M537.59,408.312,368.031,210.477a7.991,7.991,0,0,0-14.312,2.924h0L297.034,411.716h0a7.982,7.982,0,0,0,7.492,10.784H532.521a8,8,0,0,0,5.069-14.188Z" transform="translate(-81.301 -72)" style="fill:#748419"/><path id="TopLeft" d="M537.59,408.312,368.031,210.477a7.991,7.991,0,0,0-14.312,2.924h0L297.034,411.716h0a7.982,7.982,0,0,0,7.492,10.784H532.521a8,8,0,0,0,5.069-14.188Z" transform="translate(-81.301 -72)" style="fill:#748419"/><path id="BottomLeft" d="M353.528,414.5V361.339l-45.536,12.039,0,.006-10.9,38.142.058.085A7.986,7.986,0,0,0,304.6,422.5h56.928A8,8,0,0,1,353.528,414.5Z" transform="translate(-81.301 -72)" style="fill:#4d6629"/><path id="TopRight" d="M537.356,408.137,368.031,210.477a7.994,7.994,0,0,0-14.5,4.648V414.5a8,8,0,0,0,8,8H532.521a7.993,7.993,0,0,0,4.835-14.363Z" transform="translate(-81.301 -72)" style="fill:#bfc630"/><path id="BottomRight" d="M540.467,413.59c-.012-.1-.033-.2-.048-.3-.03-.2-.061-.39-.1-.58-.027-.117-.061-.23-.093-.345-.047-.168-.095-.335-.152-.5-.042-.119-.089-.235-.136-.352-.062-.152-.127-.3-.2-.451q-.083-.173-.174-.341c-.077-.142-.159-.282-.244-.419-.066-.107-.133-.214-.2-.318-.095-.138-.2-.27-.3-.4-.073-.093-.144-.188-.22-.277-.124-.144-.256-.281-.39-.416-.063-.063-.122-.13-.186-.192l-.026-.024a8.1,8.1,0,0,0-.636-.543l-53.577-62.542-9.7-11.291-.049-.058-.215-.25-.017-.005a7.938,7.938,0,0,0-7.684-2.41l-.012,0L353.528,361.339V414.5a8,8,0,0,0,8,8H532.521a7.981,7.981,0,0,0,7.946-8.91Z" transform="translate(-81.301 -72)" style="fill:#8ea81e"/></g></g></svg>