<svg id="Layer_4" data-name="Layer 4" xmlns="http://www.w3.org/2000/svg" xmlns:xlink="http://www.w3.org/1999/xlink" viewBox="0 0 120.93 18.67"><defs><style>.cls-1{fill:none;}.cls-2{fill:#4d6629;}.cls-3{fill:#748419;}.cls-4{fill:#bfc630;}.cls-5{fill:#8ea81e;}.cls-6{clip-path:url(#clip-path);}.cls-7{fill:#536b34;}.cls-13,.cls-14,.cls-8,.cls-9{opacity:0.72;}.cls-8{fill:url(#linear-gradient);}.cls-9{fill:url(#linear-gradient-2);}.cls-10{fill:#698941;}.cls-11{clip-path:url(#clip-path-2);}.cls-12{fill:#3f5124;}.cls-13{fill:url(#linear-gradient-3);}.cls-14{fill:url(#linear-gradient-4);}.cls-15{clip-path:url(#clip-path-3);}.cls-16,.cls-17,.cls-19,.cls-20{opacity:0.49;}.cls-16{fill:url(#linear-gradient-5);}.cls-17{fill:url(#linear-gradient-6);}.cls-18{clip-path:url(#clip-path-4);}.cls-19{fill:url(#linear-gradient-7);}.cls-20{fill:url(#linear-gradient-8);}.cls-21{clip-path:url(#clip-path-5);}.cls-22,.cls-23,.cls-24{opacity:0.38;}.cls-22{fill:url(#linear-gradient-9);}.cls-23{fill:url(#linear-gradient-10);}.cls-24{fill:url(#linear-gradient-11);}.cls-25{clip-path:url(#clip-path-6);}.cls-26{fill:url(#linear-gradient-12);}.cls-27{opacity:0.26;fill:url(#linear-gradient-13);}.cls-28{fill:#8aa53f;}</style><clipPath id="clip-path" transform="translate(-1 -5.5)"><path id="N" class="cls-1" d="M120.83,22.08V7.78h-3.2v8.44q-0.74-1.11-1.59-2.32t-1.7-2.33q-0.86-1.12-1.68-2.11t-1.51-1.67h-2.62v14.3h3.18V12.71a49.34,49.34,0,0,1,3.42,4.52q1.61,2.39,3,4.85h2.7Z"/></clipPath><linearGradient id="linear-gradient" x1="46.74" y1="-45.78" x2="45.19" y2="-51.01" gradientTransform="translate(63.56 53.69)" gradientUnits="userSpaceOnUse"><stop offset="0" stop-opacity="0"/><stop offset="1"/></linearGradient><linearGradient id="linear-gradient-2" x1="227.45" y1="114.23" x2="225.9" y2="109" gradientTransform="translate(-107.52 -92.96)" xlink:href="#linear-gradient"/><clipPath id="clip-path-2" transform="translate(-1 -5.5)"><path id="A" class="cls-1" d="M101.19,22.08q-0.81-2.31-1.53-4.27t-1.42-3.69q-0.69-1.73-1.38-3.29t-1.39-3H92.42q-0.72,1.49-1.4,3t-1.37,3.29Q89,15.85,88.24,17.81t-1.53,4.27h3.34q0.23-.74.51-1.53L91.1,19h5.58l0.55,1.56q0.27,0.79.51,1.53h3.45Zm-7-10.22L94.7,13.1q0.28,0.7.58,1.55l0.64,1.78H91.84q0.34-.93.67-1.77l0.59-1.55,0.47-1.24q0.21-.54.32-0.85l0.34,0.84h0Z"/></clipPath><linearGradient id="linear-gradient-3" x1="65.87" y1="146.01" x2="64.33" y2="140.77" gradientTransform="translate(28.55 -125.27)" xlink:href="#linear-gradient"/><linearGradient id="linear-gradient-4" x1="91.3" y1="8" x2="89.75" y2="2.77" gradientTransform="matrix(1, 0, 0, 1, 0, 0)" xlink:href="#linear-gradient"/><clipPath id="clip-path-3" transform="translate(-1 -5.5)"><path id="R" class="cls-1" d="M62.52,7.7A18.27,18.27,0,0,0,60.34,8V22.08h3.22V16.86h1.59q0.41,0.5.83,1.1t0.84,1.29q0.42,0.68.83,1.4l0.8,1.42H72q-0.37-.78-0.8-1.6t-0.9-1.57q-0.46-.75-0.94-1.44t-0.91-1.23a4.55,4.55,0,0,0,2-1.47,4,4,0,0,0,.69-2.44,4,4,0,0,0-1.71-3.56,8.86,8.86,0,0,0-4.93-1.15q-0.89,0-2,.08h0Zm4.54,3.1a1.57,1.57,0,0,1,.79,1.5,1.64,1.64,0,0,1-.78,1.55,5.48,5.48,0,0,1-2.6.45H63.56V10.42l0.53,0,0.63,0a4.92,4.92,0,0,1,2.34.44h0Z"/></clipPath><linearGradient id="linear-gradient-5" x1="61.44" y1="8.31" x2="60.42" y2="4.85" gradientTransform="matrix(1, 0, 0, 1, 0, 0)" xlink:href="#linear-gradient"/><linearGradient id="linear-gradient-6" x1="67.78" y1="14.5" x2="66.56" y2="10.36" gradientTransform="matrix(1, 0, 0, 1, 0, 0)" xlink:href="#linear-gradient"/><clipPath id="clip-path-4" transform="translate(-1 -5.5)"><path id="R-2" data-name="R" class="cls-1" d="M76,7.7A18.27,18.27,0,0,0,73.8,8V22.08H77V16.86h1.59q0.41,0.5.83,1.1t0.84,1.29q0.42,0.68.83,1.4l0.8,1.42h3.6q-0.37-.78-0.8-1.6t-0.9-1.57q-0.46-.75-0.94-1.44t-0.91-1.23a4.55,4.55,0,0,0,2-1.47,4,4,0,0,0,.69-2.44,4,4,0,0,0-1.71-3.56A8.86,8.86,0,0,0,78,7.62q-0.89,0-2,.08h0Zm4.54,3.1a1.57,1.57,0,0,1,.79,1.5,1.64,1.64,0,0,1-.78,1.55,5.48,5.48,0,0,1-2.6.45H77V10.42l0.53,0,0.63,0a4.92,4.92,0,0,1,2.34.44h0Z"/></clipPath><linearGradient id="linear-gradient-7" x1="74.9" y1="8.31" x2="73.88" y2="4.85" gradientTransform="matrix(1, 0, 0, 1, 0, 0)" xlink:href="#linear-gradient"/><linearGradient id="linear-gradient-8" x1="81.24" y1="14.5" x2="80.01" y2="10.36" gradientTransform="matrix(1, 0, 0, 1, 0, 0)" xlink:href="#linear-gradient"/><clipPath id="clip-path-5" transform="translate(-1 -5.5)"><polygon id="E" class="cls-1" points="58.21 22.08 58.21 19.38 51.3 19.38 51.3 15.93 57.01 15.93 57.01 13.29 51.3 13.29 51.3 10.48 57.73 10.48 57.73 7.78 48.08 7.78 48.08 22.08 58.21 22.08 58.21 22.08"/></clipPath><linearGradient id="linear-gradient-9" x1="53.39" y1="4.04" x2="49.93" y2="3.26" gradientTransform="matrix(1, 0, 0, 1, 0, 0)" xlink:href="#linear-gradient"/><linearGradient id="linear-gradient-10" x1="53.39" y1="9.51" x2="49.93" y2="8.73" gradientTransform="matrix(1, 0, 0, 1, 0, 0)" xlink:href="#linear-gradient"/><linearGradient id="linear-gradient-11" x1="53.39" y1="15.63" x2="49.93" y2="14.86" gradientTransform="matrix(1, 0, 0, 1, 0, 0)" xlink:href="#linear-gradient"/><clipPath id="clip-path-6" transform="translate(-1 -5.5)"><polygon id="T" class="cls-1" points="34.13 7.78 34.13 10.53 38.44 10.53 38.44 22.08 41.66 22.08 41.66 10.53 45.97 10.53 45.97 7.78 34.13 7.78 34.13 7.78"/></clipPath><linearGradient id="linear-gradient-12" x1="39.06" y1="6.86" x2="38.47" y2="3.69" gradientTransform="matrix(1, 0, 0, 1, 0, 0)" xlink:href="#linear-gradient"/><linearGradient id="linear-gradient-13" x1="43.86" y1="4.12" x2="38.73" y2="3.23" gradientTransform="matrix(1, 0, 0, 1, 0, 0)" xlink:href="#linear-gradient"/></defs><title>logo_TerrainLong</title><path class="cls-2" d="M9.38,23.67h0l1.27-3.27L6,21.63,5,23.09H5a0.69,0.69,0,0,0,.58,1.08H8.72A0.69,0.69,0,0,0,9.38,23.67Z" transform="translate(-1 -5.5)"/><path class="cls-3" d="M13.25,13.68a0.69,0.69,0,0,0-.32-0.91h0l-0.4-.22h0a0.69,0.69,0,0,0-.93.24h0L6,21.63l4.7-1.24Z" transform="translate(-1 -5.5)"/><path class="cls-2" d="M3.18,23.86h0L4.5,22l-2.91.77h0a0.69,0.69,0,0,0-.41.23h0a0.69,0.69,0,0,0-.16.33H1V23.4H1s0,0,0,.06a0.69,0.69,0,0,0,.69.69H2.6A0.69,0.69,0,0,0,3.18,23.86Z" transform="translate(-1 -5.5)"/><path class="cls-3" d="M1.58,22.79h0L4.5,22l3.28-4.59a0.69,0.69,0,1,0-1.11-.83L1.17,23A0.69,0.69,0,0,1,1.58,22.79Z" transform="translate(-1 -5.5)"/><path class="cls-3" d="M32.39,22.94L17.69,5.79A0.69,0.69,0,0,0,16.45,6h0L11.54,23.23h0a0.69,0.69,0,0,0,.65.93H31.95A0.69,0.69,0,0,0,32.39,22.94Z" transform="translate(-1 -5.5)"/><path class="cls-4" d="M32.37,22.92L17.69,5.79a0.69,0.69,0,0,0-1.26.4V23.47a0.69,0.69,0,0,0,.69.69H31.95A0.69,0.69,0,0,0,32.37,22.92Z" transform="translate(-1 -5.5)"/><path class="cls-5" d="M32.63,23.39V23.21l0,0,0,0,0,0,0,0,0,0,0,0,0,0,0,0h0l-0.06,0L27.72,17.5l-0.84-1h0l0,0h0a0.69,0.69,0,0,0-.51-0.23l-0.15,0h0l-9.76,2.58v4.61a0.69,0.69,0,0,0,.69.69H31.95A0.69,0.69,0,0,0,32.63,23.39Z" transform="translate(-1 -5.5)"/><path class="cls-2" d="M16.43,23.47V18.87l-3.95,1h0l-0.94,3.31h0a0.69,0.69,0,0,0,.65.94h4.93A0.69,0.69,0,0,1,16.43,23.47Z" transform="translate(-1 -5.5)"/><g class="cls-6"><path id="N-2" data-name="N" class="cls-7" d="M120.83,22.08V7.78h-3.2v8.44q-0.74-1.11-1.59-2.32t-1.7-2.33q-0.86-1.12-1.68-2.11t-1.51-1.67h-2.62v14.3h3.18V12.71a49.34,49.34,0,0,1,3.42,4.52q1.61,2.39,3,4.85h2.7Z" transform="translate(-1 -5.5)"/><rect class="cls-8" x="106.83" y="2.12" width="5.47" height="6.59"/><rect class="cls-9" x="116.46" y="15.48" width="5.47" height="6.59" transform="translate(237.38 32.06) rotate(180)"/><polygon class="cls-10" points="107.53 2.28 110.71 7.21 117.06 16.87 119.83 16.68 116.63 10.72 110.84 2.05 107.53 2.28"/></g><polygon id="I" class="cls-10" points="101.71 16.58 104.93 16.58 104.93 2.28 101.71 2.28 101.71 16.58 101.71 16.58"/><g class="cls-11"><path id="A-2" data-name="A" class="cls-10" d="M101.19,22.08q-0.81-2.31-1.53-4.27t-1.42-3.69q-0.69-1.73-1.38-3.29t-1.39-3H92.42q-0.72,1.49-1.4,3t-1.37,3.29Q89,15.85,88.24,17.81t-1.53,4.27h3.34q0.23-.74.51-1.53L91.1,19h5.58l0.55,1.56q0.27,0.79.51,1.53h3.45Zm-7-10.22L94.7,13.1q0.28,0.7.58,1.55l0.64,1.78H91.84q0.34-.93.67-1.77l0.59-1.55,0.47-1.24q0.21-.54.32-0.85l0.34,0.84h0Z" transform="translate(-1 -5.5)"/><rect class="cls-12" x="89.65" y="10.74" width="6.36" height="2.83"/><rect class="cls-13" x="90.95" y="14.94" width="5.47" height="6.59" transform="translate(110.93 -80.94) rotate(90)"/><polygon class="cls-7" points="91.31 2.12 85.29 16.58 89.06 16.58 90.1 13.48 90.84 10.93 92.88 5.52 94.56 2.12 91.31 2.12"/><rect class="cls-14" x="87.83" y="2.21" width="5.47" height="6.59"/><path class="cls-10" d="M92.31,7.62L93.88,11l2,5.41L96.69,19l1.06,3.09h3.45S96.7,8.83,95.47,7.78Z" transform="translate(-1 -5.5)"/></g><g class="cls-15"><path id="R-3" data-name="R" class="cls-7" d="M62.52,7.7A18.27,18.27,0,0,0,60.34,8V22.08h3.22V16.86h1.59q0.41,0.5.83,1.1t0.84,1.29q0.42,0.68.83,1.4l0.8,1.42H72q-0.37-.78-0.8-1.6t-0.9-1.57q-0.46-.75-0.94-1.44t-0.91-1.23a4.55,4.55,0,0,0,2-1.47,4,4,0,0,0,.69-2.44,4,4,0,0,0-1.71-3.56,8.86,8.86,0,0,0-4.93-1.15q-0.89,0-2,.08h0Zm4.54,3.1a1.57,1.57,0,0,1,.79,1.5,1.64,1.64,0,0,1-.78,1.55,5.48,5.48,0,0,1-2.6.45H63.56V10.42l0.53,0,0.63,0a4.92,4.92,0,0,1,2.34.44h0Z" transform="translate(-1 -5.5)"/><path class="cls-12" d="M68.37,22.16h3.79s-2.8-5.74-3.65-6A23.4,23.4,0,0,1,65,16.8Z" transform="translate(-1 -5.5)"/><rect class="cls-16" x="59.34" y="4.43" width="3.22" height="4.47"/><rect class="cls-17" x="63.78" y="10.29" width="6.83" height="4.47"/><path class="cls-10" d="M60.34,8s11.11-2.45,11.1,4.12c0.09,5.48-7.88,4.75-7.88,4.75V14.3s4.49,0.17,4.16-2.36c-0.26-2-4.16-1.52-4.16-1.52a20.46,20.46,0,0,0-3.22.55" transform="translate(-1 -5.5)"/></g><g class="cls-18"><path id="R-4" data-name="R" class="cls-7" d="M76,7.7A18.27,18.27,0,0,0,73.8,8V22.08H77V16.86h1.59q0.41,0.5.83,1.1t0.84,1.29q0.42,0.68.83,1.4l0.8,1.42h3.6q-0.37-.78-0.8-1.6t-0.9-1.57q-0.46-.75-0.94-1.44t-0.91-1.23a4.55,4.55,0,0,0,2-1.47,4,4,0,0,0,.69-2.44,4,4,0,0,0-1.71-3.56A8.86,8.86,0,0,0,78,7.62q-0.89,0-2,.08h0Zm4.54,3.1a1.57,1.57,0,0,1,.79,1.5,1.64,1.64,0,0,1-.78,1.55,5.48,5.48,0,0,1-2.6.45H77V10.42l0.53,0,0.63,0a4.92,4.92,0,0,1,2.34.44h0Z" transform="translate(-1 -5.5)"/><path class="cls-12" d="M81.83,22.16h3.79s-2.8-5.74-3.65-6a23.4,23.4,0,0,1-3.51.68Z" transform="translate(-1 -5.5)"/><rect class="cls-19" x="72.8" y="4.43" width="3.22" height="4.47"/><rect class="cls-20" x="77.24" y="10.29" width="6.83" height="4.47"/><path class="cls-10" d="M73.8,8s11.11-2.45,11.1,4.12C85,17.59,77,16.86,77,16.86V14.3s4.49,0.17,4.16-2.36c-0.26-2-4.16-1.52-4.16-1.52A20.46,20.46,0,0,0,73.8,11" transform="translate(-1 -5.5)"/></g><g class="cls-21"><polygon id="E-2" data-name="E" class="cls-7" points="57.21 16.58 57.21 13.88 50.3 13.88 50.3 10.43 56.01 10.43 56.01 7.79 50.3 7.79 50.3 4.99 56.73 4.99 56.73 2.28 47.08 2.28 47.08 16.58 57.21 16.58 57.21 16.58"/><rect class="cls-22" x="49.82" y="2.28" width="3.55" height="2.7"/><rect class="cls-23" x="49.82" y="7.75" width="3.55" height="2.7"/><rect class="cls-24" x="49.82" y="13.88" width="3.55" height="2.7"/><rect class="cls-10" x="46.56" y="1.5" width="3.76" height="15.39"/></g><g class="cls-25"><rect class="cls-7" x="36.36" y="5.03" width="4.87" height="12.47"/><rect class="cls-26" x="37.44" y="5.03" width="3.22" height="3.57"/><polygon class="cls-10" points="44.97 5.03 35.7 5.03 35.7 1.99 44.97 2.29 44.97 5.03"/><polygon class="cls-10" points="44.43 5.03 35.7 5.03 35.7 2.64 44.43 2.88 44.43 5.03"/><rect class="cls-27" x="37.57" y="1.94" width="5.21" height="3.09"/><path class="cls-28" d="M41.4,10.53a3,3,0,0,0-3.23-2.75c-3.1,0-4.53,0-4.53,0v2.71Z" transform="translate(-1 -5.5)"/></g></svg>