<svg id="Layer_29" data-name="Layer 29" xmlns="http://www.w3.org/2000/svg" xmlns:xlink="http://www.w3.org/1999/xlink" viewBox="0 0 607.04 607.04"><defs><style>.cls-1{fill:none;}.cls-2{fill:#7b8f30;}.cls-3{fill:#f0f4df;}.cls-4{fill:#fff;}.cls-5{clip-path:url(#clip-path);}.cls-6{fill:#536b34;}.cls-12,.cls-13,.cls-7,.cls-8{opacity:0.72;}.cls-7{fill:url(#linear-gradient);}.cls-8{fill:url(#linear-gradient-2);}.cls-9{fill:#698941;}.cls-10{clip-path:url(#clip-path-2);}.cls-11{fill:#3f5124;}.cls-12{fill:url(#linear-gradient-3);}.cls-13{fill:url(#linear-gradient-4);}.cls-14{clip-path:url(#clip-path-3);}.cls-15,.cls-16,.cls-18,.cls-19{opacity:0.49;}.cls-15{fill:url(#linear-gradient-5);}.cls-16{fill:url(#linear-gradient-6);}.cls-17{clip-path:url(#clip-path-4);}.cls-18{fill:url(#linear-gradient-7);}.cls-19{fill:url(#linear-gradient-8);}.cls-20{clip-path:url(#clip-path-5);}.cls-21,.cls-22,.cls-23{opacity:0.38;}.cls-21{fill:url(#linear-gradient-9);}.cls-22{fill:url(#linear-gradient-10);}.cls-23{fill:url(#linear-gradient-11);}.cls-24{clip-path:url(#clip-path-6);}.cls-25{fill:url(#linear-gradient-12);}.cls-26{opacity:0.26;fill:url(#linear-gradient-13);}.cls-27{fill:#8aa53f;}.cls-28{fill:#4d6629;}.cls-29{fill:#748419;}.cls-30{fill:#bfc630;}.cls-31{fill:#8ea81e;}</style><clipPath id="clip-path" transform="translate(-49.46 -48.46)"><path id="N" class="cls-1" d="M556,466.62V399.17H540.91V439q-3.5-5.26-7.5-10.95t-8-11q-4-5.31-7.93-10t-7.11-7.88H498v67.45h15V422.43a232.79,232.79,0,0,1,16.16,21.32q7.59,11.29,14.11,22.87H556Z"/></clipPath><linearGradient id="linear-gradient" x1="446.5" y1="366.54" x2="439.2" y2="341.85" gradientTransform="translate(15.1 10.73)" gradientUnits="userSpaceOnUse"><stop offset="0" stop-opacity="0"/><stop offset="1"/></linearGradient><linearGradient id="linear-gradient-2" x1="383.82" y1="366.23" x2="376.52" y2="341.54" gradientTransform="translate(167.94 96.61)" xlink:href="#linear-gradient"/><clipPath id="clip-path-2" transform="translate(-49.46 -48.46)"><path id="A" class="cls-1" d="M463.37,466.62q-3.82-10.9-7.24-20.15t-6.7-17.42q-3.28-8.18-6.5-15.52t-6.55-14.36H422q-3.42,7-6.59,14.36t-6.44,15.52q-3.27,8.18-6.69,17.42T395,466.62h15.77q1.11-3.49,2.39-7.2l2.56-7.4H442.1l2.58,7.38q1.3,3.7,2.42,7.22h16.26Zm-32.91-48.21q1,2.53,2.29,5.84t2.76,7.31q1.45,4,3,8.38H419.21q1.59-4.37,3.14-8.36t2.8-7.3q1.25-3.31,2.23-5.85t1.49-4q0.6,1.44,1.59,4h0Z"/></clipPath><linearGradient id="linear-gradient-3" x1="452.75" y1="449.89" x2="445.45" y2="425.21" gradientTransform="translate(-21.33 10.39)" xlink:href="#linear-gradient"/><linearGradient id="linear-gradient-4" x1="371.94" y1="377.68" x2="364.64" y2="353" gradientTransform="matrix(1, 0, 0, 1, 0, 0)" xlink:href="#linear-gradient"/><clipPath id="clip-path-3" transform="translate(-49.46 -48.46)"><path id="R" class="cls-1" d="M280.89,398.78a86.19,86.19,0,0,0-10.27,1.36v66.48h15.18V442h7.5q2,2.34,3.91,5.21t4,6.08q2,3.21,3.91,6.62l3.76,6.72h17q-1.75-3.7-3.8-7.54t-4.23-7.4q-2.19-3.55-4.43-6.81t-4.28-5.79a21.47,21.47,0,0,0,9.39-7q3.26-4.43,3.26-11.53,0-11.39-8.08-16.79t-23.26-5.4q-4.19,0-9.49.39h0Zm21.41,14.65q3.75,2.09,3.75,7.06,0,5.16-3.7,7.3t-12.26,2.14h-4.28v-18.3l2.48-.19q1.31-.1,3-0.1,7.3,0,11,2.09h0Z"/></clipPath><linearGradient id="linear-gradient-5" x1="231.05" y1="379.15" x2="226.23" y2="362.84" gradientTransform="matrix(1, 0, 0, 1, 0, 0)" xlink:href="#linear-gradient"/><linearGradient id="linear-gradient-6" x1="260.96" y1="408.35" x2="255.19" y2="388.83" gradientTransform="matrix(1, 0, 0, 1, 0, 0)" xlink:href="#linear-gradient"/><clipPath id="clip-path-4" transform="translate(-49.46 -48.46)"><path id="R-2" data-name="R" class="cls-1" d="M344.39,398.78a86.19,86.19,0,0,0-10.27,1.36v66.48H349.3V442h7.5q2,2.34,3.91,5.21t4,6.08q2,3.21,3.91,6.62l3.76,6.72h17q-1.75-3.7-3.8-7.54t-4.23-7.4q-2.19-3.55-4.43-6.81t-4.28-5.79a21.47,21.47,0,0,0,9.39-7q3.26-4.43,3.26-11.53,0-11.39-8.08-16.79t-23.26-5.4q-4.19,0-9.49.39h0Zm21.41,14.65q3.75,2.09,3.75,7.06,0,5.16-3.7,7.3t-12.26,2.14H349.3v-18.3l2.48-.19q1.31-.1,3-0.1,7.3,0,11,2.09h0Z"/></clipPath><linearGradient id="linear-gradient-7" x1="294.55" y1="379.15" x2="289.73" y2="362.84" gradientTransform="matrix(1, 0, 0, 1, 0, 0)" xlink:href="#linear-gradient"/><linearGradient id="linear-gradient-8" x1="324.45" y1="408.35" x2="318.68" y2="388.83" gradientTransform="matrix(1, 0, 0, 1, 0, 0)" xlink:href="#linear-gradient"/><clipPath id="clip-path-5" transform="translate(-49.46 -48.46)"><polygon id="E" class="cls-1" points="260.55 466.62 260.55 453.87 227.94 453.87 227.94 437.62 254.91 437.62 254.91 425.16 227.94 425.16 227.94 411.92 258.31 411.92 258.31 399.17 212.76 399.17 212.76 466.62 260.55 466.62 260.55 466.62"/></clipPath><linearGradient id="linear-gradient-9" x1="193.09" y1="358.98" x2="176.73" y2="355.32" gradientTransform="matrix(1, 0, 0, 1, 0, 0)" xlink:href="#linear-gradient"/><linearGradient id="linear-gradient-10" x1="193.09" y1="384.78" x2="176.73" y2="381.13" gradientTransform="matrix(1, 0, 0, 1, 0, 0)" xlink:href="#linear-gradient"/><linearGradient id="linear-gradient-11" x1="193.09" y1="413.68" x2="176.73" y2="410.02" gradientTransform="matrix(1, 0, 0, 1, 0, 0)" xlink:href="#linear-gradient"/><clipPath id="clip-path-6" transform="translate(-49.46 -48.46)"><polygon id="T" class="cls-1" points="146.93 399.17 146.93 412.12 167.27 412.12 167.27 466.62 182.45 466.62 182.45 412.12 202.8 412.12 202.8 399.17 146.93 399.17 146.93 399.17"/></clipPath><linearGradient id="linear-gradient-12" x1="125.44" y1="372.3" x2="122.69" y2="357.37" gradientTransform="matrix(1, 0, 0, 1, 0, 0)" xlink:href="#linear-gradient"/><linearGradient id="linear-gradient-13" x1="148.13" y1="359.39" x2="123.89" y2="355.18" gradientTransform="matrix(1, 0, 0, 1, 0, 0)" xlink:href="#linear-gradient"/></defs><title>logo_TerrainCircleRounded</title><circle class="cls-2" cx="303.52" cy="303.52" r="303.52"/><path class="cls-3" d="M353,628.65A276.67,276.67,0,0,1,157.34,156.34,276.67,276.67,0,0,1,548.62,547.62,274.86,274.86,0,0,1,353,628.65Z" transform="translate(-49.46 -48.46)"/><path class="cls-4" d="M353,78.81a272.29,272.29,0,1,1-106.33,21.46A271.45,271.45,0,0,1,353,78.81m0-7C198.25,71.81,72.81,197.25,72.81,352S198.25,632.15,353,632.15,633.15,506.72,633.15,352,507.72,71.81,353,71.81h0Z" transform="translate(-49.46 -48.46)"/><g class="cls-5"><path id="N-2" data-name="N" class="cls-6" d="M556,466.62V399.17H540.91V439q-3.5-5.26-7.5-10.95t-8-11q-4-5.31-7.93-10t-7.11-7.88H498v67.45h15V422.43a232.79,232.79,0,0,1,16.16,21.32q7.59,11.29,14.11,22.87H556Z" transform="translate(-49.46 -48.46)"/><rect class="cls-7" x="445.21" y="349.93" width="25.81" height="31.11"/><rect class="cls-8" x="535.38" y="435.51" width="25.81" height="31.11" transform="translate(1047.11 853.67) rotate(180)"/><polygon class="cls-9" points="448.52 350.71 463.51 373.97 493.46 419.52 506.54 418.61 491.45 390.52 464.13 349.62 448.52 350.71"/></g><polygon id="I" class="cls-9" points="421.06 418.16 436.24 418.16 436.24 350.71 421.06 350.71 421.06 418.16 421.06 418.16"/><g class="cls-10"><path id="A-2" data-name="A" class="cls-9" d="M463.37,466.62q-3.82-10.9-7.24-20.15t-6.7-17.42q-3.28-8.18-6.5-15.52t-6.55-14.36H422q-3.42,7-6.59,14.36t-6.44,15.52q-3.27,8.18-6.69,17.42T395,466.62h15.77q1.11-3.49,2.39-7.2l2.56-7.4H442.1l2.58,7.38q1.3,3.7,2.42,7.22h16.26Zm-32.91-48.21q1,2.53,2.29,5.84t2.76,7.31q1.45,4,3,8.38H419.21q1.59-4.37,3.14-8.36t2.8-7.3q1.25-3.31,2.23-5.85t1.49-4q0.6,1.44,1.59,4h0Z" transform="translate(-49.46 -48.46)"/><rect class="cls-11" x="364.14" y="390.61" width="30" height="13.33"/><rect class="cls-12" x="415.04" y="432.96" width="25.81" height="31.11" transform="translate(826.99 -27.89) rotate(90)"/><polygon class="cls-6" points="371.97 349.93 343.58 418.16 361.35 418.16 366.3 403.56 369.75 391.49 379.4 365.99 387.3 349.93 371.97 349.93"/><rect class="cls-13" x="355.55" y="350.35" width="25.81" height="31.11"/><path class="cls-9" d="M421.43,398.39l7.43,16.06L438.5,440,442.1,452l5,14.6h16.26s-21.21-62.53-27-67.45Z" transform="translate(-49.46 -48.46)"/></g><g class="cls-14"><path id="R-3" data-name="R" class="cls-6" d="M280.89,398.78a86.19,86.19,0,0,0-10.27,1.36v66.48h15.18V442h7.5q2,2.34,3.91,5.21t4,6.08q2,3.21,3.91,6.62l3.76,6.72h17q-1.75-3.7-3.8-7.54t-4.23-7.4q-2.19-3.55-4.43-6.81t-4.28-5.79a21.47,21.47,0,0,0,9.39-7q3.26-4.43,3.26-11.53,0-11.39-8.08-16.79t-23.26-5.4q-4.19,0-9.49.39h0Zm21.41,14.65q3.75,2.09,3.75,7.06,0,5.16-3.7,7.3t-12.26,2.14h-4.28v-18.3l2.48-.19q1.31-.1,3-0.1,7.3,0,11,2.09h0Z" transform="translate(-49.46 -48.46)"/><path class="cls-11" d="M308.49,467h17.87s-13.21-27.08-17.21-28.54c0,0-10.79,2.91-16.58,3.21Z" transform="translate(-49.46 -48.46)"/><rect class="cls-15" x="221.16" y="360.81" width="15.18" height="21.11"/><rect class="cls-16" x="242.09" y="388.48" width="32.23" height="21.11"/><path class="cls-9" d="M270.62,400.14S323,388.58,323,419.57c0.43,25.87-37.18,22.42-37.18,22.42V429.93s21.17,0.81,19.64-11.14c-1.21-9.41-19.64-7.15-19.64-7.15s-15.18,1.78-15.18,2.61" transform="translate(-49.46 -48.46)"/></g><g class="cls-17"><path id="R-4" data-name="R" class="cls-6" d="M344.39,398.78a86.19,86.19,0,0,0-10.27,1.36v66.48H349.3V442h7.5q2,2.34,3.91,5.21t4,6.08q2,3.21,3.91,6.62l3.76,6.72h17q-1.75-3.7-3.8-7.54t-4.23-7.4q-2.19-3.55-4.43-6.81t-4.28-5.79a21.47,21.47,0,0,0,9.39-7q3.26-4.43,3.26-11.53,0-11.39-8.08-16.79t-23.26-5.4q-4.19,0-9.49.39h0Zm21.41,14.65q3.75,2.09,3.75,7.06,0,5.16-3.7,7.3t-12.26,2.14H349.3v-18.3l2.48-.19q1.31-.1,3-0.1,7.3,0,11,2.09h0Z" transform="translate(-49.46 -48.46)"/><path class="cls-11" d="M372,467h17.87s-13.21-27.08-17.21-28.54c0,0-10.79,2.91-16.58,3.21Z" transform="translate(-49.46 -48.46)"/><rect class="cls-18" x="284.66" y="360.81" width="15.18" height="21.11"/><rect class="cls-19" x="305.59" y="388.48" width="32.23" height="21.11"/><path class="cls-9" d="M334.12,400.14s52.43-11.57,52.36,19.43C386.91,445.45,349.3,442,349.3,442V429.93s21.17,0.81,19.64-11.14c-1.21-9.41-19.64-7.15-19.64-7.15s-15.18,1.78-15.18,2.61" transform="translate(-49.46 -48.46)"/></g><g class="cls-20"><polygon id="E-2" data-name="E" class="cls-6" points="211.09 418.16 211.09 405.41 178.48 405.41 178.48 389.15 205.44 389.15 205.44 376.7 178.48 376.7 178.48 363.46 208.85 363.46 208.85 350.71 163.3 350.71 163.3 418.16 211.09 418.16 211.09 418.16"/><rect class="cls-21" x="176.23" y="350.71" width="16.76" height="12.75"/><rect class="cls-22" x="176.23" y="376.51" width="16.76" height="12.75"/><rect class="cls-23" x="176.23" y="405.41" width="16.76" height="12.75"/><rect class="cls-9" x="160.83" y="346.99" width="17.75" height="72.62"/></g><g class="cls-24"><rect class="cls-6" x="112.71" y="363.65" width="23" height="58.83"/><rect class="cls-25" x="117.81" y="363.65" width="15.18" height="16.85"/><polygon class="cls-9" points="153.33 363.65 109.63 363.65 109.63 349.32 153.33 350.74 153.33 363.65"/><rect class="cls-26" x="118.44" y="349.08" width="24.6" height="14.57"/><path class="cls-27" d="M181.94,412.11s-0.27-13-14.9-13-21,.13-21,0.13V412Z" transform="translate(-49.46 -48.46)"/></g><path class="cls-28" d="M267.68,378.74h0L282.3,341l-54.19,14.31L217.43,372h0a8,8,0,0,0,6.63,12.47H260A8,8,0,0,0,267.68,378.74Z" transform="translate(-49.46 -48.46)"/><path class="cls-29" d="M312.29,263.53A8,8,0,0,0,308.63,253h0L304,250.43h0a8,8,0,0,0-10.68,2.75h0L228.12,355.28,282.3,341Z" transform="translate(-49.46 -48.46)"/><path class="cls-28" d="M196.08,381h0l15.19-21.24-33.6,8.87h0a8,8,0,0,0-4.73,2.61h0A8,8,0,0,0,171.1,375v0c0,0.21-.07.42-0.09,0.64,0,0,0,.06,0,0.09q0,0.37,0,.75a8,8,0,0,0,8,8h10.5A8,8,0,0,0,196.08,381Z" transform="translate(-49.46 -48.46)"/><path class="cls-29" d="M177.69,368.61h0l33.6-8.87,37.86-52.95a8,8,0,1,0-12.77-9.62L173,371.22A8,8,0,0,1,177.69,368.61Z" transform="translate(-49.46 -48.46)"/><path class="cls-29" d="M533.07,370.31L363.51,172.48a8,8,0,0,0-14.31,2.92h0L292.51,373.72h0A8,8,0,0,0,300,384.5H528A8,8,0,0,0,533.07,370.31Z" transform="translate(-49.46 -48.46)"/><path class="cls-30" d="M532.83,370.14L363.51,172.48a8,8,0,0,0-14.5,4.65V376.5a8,8,0,0,0,8,8H528A8,8,0,0,0,532.83,370.14Z" transform="translate(-49.46 -48.46)"/><path class="cls-31" d="M535.95,375.59c0-.1,0-0.2,0-0.3s-0.06-.39-0.1-0.58-0.06-.23-0.09-0.34-0.09-.33-0.15-0.5-0.09-.24-0.14-0.35-0.13-.3-0.2-0.45l-0.17-.34c-0.08-.14-0.16-0.28-0.24-0.42l-0.2-.32c-0.09-.14-0.2-0.27-0.3-0.4l-0.22-.28c-0.12-.14-0.26-0.28-0.39-0.42l-0.19-.19,0,0a8.1,8.1,0,0,0-.64-0.54l-53.58-62.54-9.7-11.29,0-.06-0.22-.25h0a7.94,7.94,0,0,0-7.68-2.41h0L349,323.34V376.5a8,8,0,0,0,8,8H528A8,8,0,0,0,535.95,375.59Z" transform="translate(-49.46 -48.46)"/><path class="cls-28" d="M349,376.5V323.34l-45.54,12h0l-10.9,38.14,0.06,0.08a8,8,0,0,0,7.45,10.89H357A8,8,0,0,1,349,376.5Z" transform="translate(-49.46 -48.46)"/></svg>