<?xml version="1.0" encoding="utf-8"?>
<!-- Generator: Adobe Illustrator 19.0.0, SVG Export Plug-In . SVG Version: 6.00 Build 0)  -->
<svg version="1.1" xmlns="http://www.w3.org/2000/svg" xmlns:xlink="http://www.w3.org/1999/xlink" x="0px" y="0px"
	 viewBox="0 0 121.279 30" enable-background="new 0 0 121.279 30" xml:space="preserve">
<g id="Layer_11">
	<polygon fill="#7B8F30" points="16.07,5.419 10.713,24.167 32.139,24.167 	"/>
	<g>
		<defs>
			<polygon id="SVGID_1_" points="16.07,5.419 10.713,24.167 32.139,24.167 			"/>
		</defs>
		<clipPath id="SVGID_2_">
			<use xlink:href="#SVGID_1_"  overflow="visible"/>
		</clipPath>
		<polyline clip-path="url(#SVGID_2_)" fill="#677225" points="0,24.167 25.947,16.299 32.139,24.167 0,24.167 		"/>
		<polygon clip-path="url(#SVGID_2_)" fill="#A0AC39" points="16.07,5.419 16.028,19.307 25.947,16.299 		"/>
		<polygon clip-path="url(#SVGID_2_)" fill="#8AA53F" points="16.028,19.307 16.028,24.32 32.879,24.32 25.947,16.299 		"/>
		<polygon clip-path="url(#SVGID_2_)" fill="#5C8335" points="16.028,19.307 16.028,24.404 10.485,24.404 11.524,20.672 		"/>
	</g>
	<polygon fill="#7B8F30" points="11.383,12.642 4.017,24.167 8.704,24.167 12.864,13.453 	"/>
	<g>
		<defs>
			<polygon id="SVGID_3_" points="11.383,12.642 4.017,24.167 8.704,24.167 12.864,13.453 			"/>
		</defs>
		<clipPath id="SVGID_4_">
			<use xlink:href="#SVGID_3_"  overflow="visible"/>
		</clipPath>
		<polyline clip-path="url(#SVGID_4_)" fill="#5C8335" points="0,24.167 25.947,16.299 32.139,24.167 0,24.167 		"/>
	</g>
	<polygon fill="#7B8F30" points="6.603,16.479 0,24.167 2.678,24.167 7.88,16.885 	"/>
	<g>
		<g>
			<defs>
				<polygon id="SVGID_5_" points="6.603,16.479 0,24.167 2.678,24.167 7.88,16.885 				"/>
			</defs>
			<clipPath id="SVGID_6_">
				<use xlink:href="#SVGID_5_"  overflow="visible"/>
			</clipPath>
		</g>
		<g>
			<defs>
				<polygon id="SVGID_7_" points="6.603,16.479 0,24.167 2.678,24.167 7.88,16.885 				"/>
			</defs>
			<use xlink:href="#SVGID_7_"  overflow="visible" fill="#7B8F30"/>
			<clipPath id="SVGID_8_">
				<use xlink:href="#SVGID_7_"  overflow="visible"/>
			</clipPath>
			<polyline clip-path="url(#SVGID_8_)" fill="#5C8335" points="0,24.167 25.947,16.299 32.139,24.167 0,24.167 			"/>
		</g>
		<g>
			<defs>
				<polygon id="SVGID_9_" points="6.603,16.479 0,24.167 2.678,24.167 7.88,16.885 				"/>
			</defs>
			<clipPath id="SVGID_10_">
				<use xlink:href="#SVGID_9_"  overflow="visible"/>
			</clipPath>
		</g>
	</g>
</g>
<g id="Layer_12">
	<path id="N_3_" fill="#617E3F" d="M120.827,22.356V8.134h-3.181v8.393c-0.492-0.739-1.019-1.508-1.58-2.309
		c-0.561-0.8-1.125-1.573-1.693-2.319c-0.568-0.746-1.126-1.447-1.673-2.103c-0.547-0.657-1.047-1.211-1.498-1.662h-2.606v14.222
		h3.161v-9.317c1.204,1.409,2.339,2.907,3.406,4.494c1.067,1.587,2.059,3.195,2.976,4.823H120.827L120.827,22.356z"/>
	<g>
		<defs>
			<path id="N_2_" d="M120.827,22.356V8.134h-3.181v8.393c-0.492-0.739-1.019-1.508-1.58-2.309c-0.561-0.8-1.125-1.573-1.693-2.319
				c-0.568-0.746-1.126-1.447-1.673-2.103c-0.547-0.657-1.047-1.211-1.498-1.662h-2.606v14.222h3.161v-9.317
				c1.204,1.409,2.339,2.907,3.406,4.494c1.067,1.587,2.059,3.195,2.976,4.823H120.827L120.827,22.356z"/>
		</defs>
		<clipPath id="N_1_">
			<use xlink:href="#N_2_"  overflow="visible"/>
		</clipPath>
		<polygon clip-path="url(#N_1_)" fill="#698941" points="108.595,8.134 111.756,13.039 118.069,22.643 120.827,22.45 
			117.646,16.527 111.885,7.904 		"/>
	</g>
	<polygon id="I" fill="#698941" points="102.805,22.356 106.006,22.356 106.006,8.134 102.805,8.134 102.805,22.356 	"/>
	<path id="A_4_" fill="#698941" d="M101.296,22.356c-0.536-1.532-1.045-2.948-1.526-4.248c-0.481-1.3-0.952-2.524-1.412-3.673
		c-0.461-1.149-0.918-2.24-1.371-3.273c-0.454-1.033-0.914-2.042-1.382-3.027h-3.035c-0.48,0.985-0.944,1.994-1.39,3.027
		c-0.446,1.033-0.899,2.124-1.358,3.273c-0.46,1.149-0.93,2.374-1.41,3.673c-0.48,1.3-0.988,2.716-1.523,4.248h3.325
		c0.155-0.491,0.323-0.997,0.504-1.518c0.18-0.521,0.361-1.041,0.54-1.56h5.554c0.181,0.516,0.362,1.035,0.544,1.556
		c0.182,0.521,0.352,1.028,0.511,1.522H101.296L101.296,22.356z M94.357,12.191c0.139,0.355,0.299,0.766,0.483,1.232
		c0.183,0.466,0.377,0.98,0.581,1.542c0.204,0.562,0.415,1.151,0.632,1.768h-4.067c0.224-0.615,0.445-1.202,0.662-1.762
		c0.217-0.56,0.414-1.073,0.589-1.539c0.176-0.466,0.332-0.877,0.47-1.232c0.138-0.355,0.242-0.636,0.314-0.843
		C94.106,11.558,94.218,11.836,94.357,12.191L94.357,12.191z"/>
	<g>
		<defs>
			<path id="A_2_" d="M101.296,22.356c-0.536-1.532-1.045-2.948-1.526-4.248c-0.481-1.3-0.952-2.524-1.412-3.673
				c-0.461-1.149-0.918-2.24-1.371-3.273c-0.454-1.033-0.914-2.042-1.382-3.027h-3.035c-0.48,0.985-0.944,1.994-1.39,3.027
				c-0.446,1.033-0.899,2.124-1.358,3.273c-0.46,1.149-0.93,2.374-1.41,3.673c-0.48,1.3-0.988,2.716-1.523,4.248h3.325
				c0.155-0.491,0.323-0.997,0.504-1.518c0.18-0.521,0.361-1.041,0.54-1.56h5.554c0.181,0.516,0.362,1.035,0.544,1.556
				c0.182,0.521,0.352,1.028,0.511,1.522H101.296L101.296,22.356z M94.357,12.191c0.139,0.355,0.299,0.766,0.483,1.232
				c0.183,0.466,0.377,0.98,0.581,1.542c0.204,0.562,0.415,1.151,0.632,1.768h-4.067c0.224-0.615,0.445-1.202,0.662-1.762
				c0.217-0.56,0.414-1.073,0.589-1.539c0.176-0.466,0.332-0.877,0.47-1.232c0.138-0.355,0.242-0.636,0.314-0.843
				C94.106,11.558,94.218,11.836,94.357,12.191L94.357,12.191z"/>
		</defs>
		<clipPath id="A_1_">
			<use xlink:href="#A_2_"  overflow="visible"/>
		</clipPath>
		<rect x="90.803" y="16.547" clip-path="url(#A_1_)" fill="#577138" width="6.325" height="2.811"/>
		<polygon clip-path="url(#A_1_)" fill="#617E3F" points="92.454,7.97 86.468,22.356 90.214,22.356 91.258,19.277 91.987,16.733 
			94.021,11.356 95.687,7.97 		"/>
		<path clip-path="url(#A_1_)" fill="#698941" d="M92.454,7.97l1.567,3.386l2.032,5.377l0.759,2.545l1.055,3.078h3.429
			c0,0-4.472-13.183-5.691-14.222L92.454,7.97z"/>
	</g>
	<path id="R" fill="#617E3F" d="M76.21,8.052c-0.746,0.055-1.467,0.151-2.165,0.287v14.017h3.201v-5.192h1.58
		c0.275,0.328,0.55,0.694,0.824,1.098c0.274,0.404,0.553,0.831,0.834,1.283c0.282,0.451,0.556,0.917,0.824,1.395
		c0.268,0.479,0.532,0.951,0.793,1.416h3.579c-0.246-0.52-0.513-1.05-0.8-1.591c-0.287-0.54-0.585-1.06-0.893-1.56
		c-0.308-0.499-0.619-0.978-0.933-1.437c-0.315-0.458-0.616-0.865-0.903-1.221c0.862-0.356,1.522-0.845,1.981-1.467
		c0.458-0.622,0.688-1.433,0.688-2.432c0-1.601-0.568-2.781-1.703-3.54c-1.136-0.759-2.77-1.139-4.905-1.139
		C77.622,7.97,76.955,7.997,76.21,8.052L76.21,8.052z M80.725,11.14c0.526,0.294,0.79,0.79,0.79,1.488
		c0,0.725-0.26,1.239-0.78,1.539c-0.52,0.301-1.382,0.451-2.586,0.451h-0.903v-3.858c0.164-0.013,0.339-0.027,0.523-0.041
		c0.185-0.014,0.393-0.021,0.626-0.021C79.421,10.699,80.198,10.846,80.725,11.14L80.725,11.14z"/>
	<g>
		<defs>
			<path id="R_5_" d="M76.21,8.052c-0.746,0.055-1.467,0.151-2.165,0.287v14.017h3.201v-5.192h1.58
				c0.275,0.328,0.55,0.694,0.824,1.098c0.274,0.404,0.553,0.831,0.834,1.283c0.282,0.451,0.556,0.917,0.824,1.395
				c0.268,0.479,0.532,0.951,0.793,1.416h3.579c-0.246-0.52-0.513-1.05-0.8-1.591c-0.287-0.54-0.585-1.06-0.893-1.56
				c-0.308-0.499-0.619-0.978-0.933-1.437c-0.315-0.458-0.616-0.865-0.903-1.221c0.862-0.356,1.522-0.845,1.981-1.467
				c0.458-0.622,0.688-1.433,0.688-2.432c0-1.601-0.568-2.781-1.703-3.54c-1.136-0.759-2.77-1.139-4.905-1.139
				C77.622,7.97,76.955,7.997,76.21,8.052L76.21,8.052z M80.725,11.14c0.526,0.294,0.79,0.79,0.79,1.488
				c0,0.725-0.26,1.239-0.78,1.539c-0.52,0.301-1.382,0.451-2.586,0.451h-0.903v-3.858c0.164-0.013,0.339-0.027,0.523-0.041
				c0.185-0.014,0.393-0.021,0.626-0.021C79.421,10.699,80.198,10.846,80.725,11.14L80.725,11.14z"/>
		</defs>
		<clipPath id="R_3_">
			<use xlink:href="#R_5_"  overflow="visible"/>
		</clipPath>
		<path clip-path="url(#R_3_)" fill="#577138" d="M82.028,22.441h3.768c0,0-2.785-5.709-3.628-6.017c0,0-2.275,0.613-3.496,0.676
			L82.028,22.441z"/>
		<path clip-path="url(#R_3_)" fill="#698941" d="M74.045,8.339c0,0,11.054-2.439,11.04,4.097c0.091,5.455-7.839,4.728-7.839,4.728
			v-2.545c0,0,4.464,0.171,4.14-2.35c-0.254-1.985-4.14-1.508-4.14-1.508s-3.201,0.376-3.201,0.551"/>
	</g>
	<path fill="#484F1C" d="M84.549,16.24"/>
	<path id="R_2_" fill="#617E3F" d="M62.823,8.052c-0.746,0.055-1.468,0.151-2.165,0.287v14.017h3.201v-5.192h1.58
		c0.275,0.328,0.549,0.694,0.824,1.098c0.274,0.404,0.553,0.831,0.834,1.283c0.282,0.451,0.556,0.917,0.824,1.395
		c0.268,0.479,0.532,0.951,0.793,1.416h3.579c-0.246-0.52-0.513-1.05-0.8-1.591c-0.287-0.54-0.585-1.06-0.893-1.56
		c-0.308-0.499-0.619-0.978-0.934-1.437c-0.315-0.458-0.616-0.865-0.903-1.221c0.862-0.356,1.522-0.845,1.98-1.467
		c0.458-0.622,0.688-1.433,0.688-2.432c0-1.601-0.568-2.781-1.703-3.54c-1.136-0.759-2.77-1.139-4.905-1.139
		C64.236,7.97,63.569,7.997,62.823,8.052L62.823,8.052z M67.338,11.14c0.526,0.294,0.79,0.79,0.79,1.488
		c0,0.725-0.26,1.239-0.78,1.539c-0.52,0.301-1.382,0.451-2.586,0.451h-0.903v-3.858c0.164-0.013,0.339-0.027,0.523-0.041
		c0.185-0.014,0.393-0.021,0.626-0.021C66.035,10.699,66.811,10.846,67.338,11.14L67.338,11.14z"/>
	<g>
		<defs>
			<path id="R_1_" d="M62.823,8.052c-0.746,0.055-1.468,0.151-2.165,0.287v14.017h3.201v-5.192h1.58
				c0.275,0.328,0.549,0.694,0.824,1.098c0.274,0.404,0.553,0.831,0.834,1.283c0.282,0.451,0.556,0.917,0.824,1.395
				c0.268,0.479,0.532,0.951,0.793,1.416h3.579c-0.246-0.52-0.513-1.05-0.8-1.591c-0.287-0.54-0.585-1.06-0.893-1.56
				c-0.308-0.499-0.619-0.978-0.934-1.437c-0.315-0.458-0.616-0.865-0.903-1.221c0.862-0.356,1.522-0.845,1.98-1.467
				c0.458-0.622,0.688-1.433,0.688-2.432c0-1.601-0.568-2.781-1.703-3.54c-1.136-0.759-2.77-1.139-4.905-1.139
				C64.236,7.97,63.569,7.997,62.823,8.052L62.823,8.052z M67.338,11.14c0.526,0.294,0.79,0.79,0.79,1.488
				c0,0.725-0.26,1.239-0.78,1.539c-0.52,0.301-1.382,0.451-2.586,0.451h-0.903v-3.858c0.164-0.013,0.339-0.027,0.523-0.041
				c0.185-0.014,0.393-0.021,0.626-0.021C66.035,10.699,66.811,10.846,67.338,11.14L67.338,11.14z"/>
		</defs>
		<clipPath id="R_4_">
			<use xlink:href="#R_1_"  overflow="visible"/>
		</clipPath>
		<path clip-path="url(#R_4_)" fill="#577138" d="M68.641,22.441h3.768c0,0-2.785-5.709-3.628-6.017c0,0-2.275,0.613-3.496,0.676
			L68.641,22.441z"/>
		<path clip-path="url(#R_4_)" fill="#698941" d="M60.658,8.339c0,0,11.054-2.439,11.04,4.097c0.092,5.455-7.838,4.728-7.838,4.728
			v-2.545c0,0,4.464,0.171,4.14-2.35c-0.255-1.985-4.14-1.508-4.14-1.508s-3.201,0.376-3.201,0.551"/>
	</g>
	<path fill="#484F1C" d="M71.162,16.24"/>
	<polygon id="E" fill="#617E3F" points="58.534,22.356 58.534,19.667 51.659,19.667 51.659,16.24 57.344,16.24 57.344,13.613 
		51.659,13.613 51.659,10.822 58.062,10.822 58.062,8.134 48.457,8.134 48.457,22.356 58.534,22.356 	"/>
	<g>
		<defs>
			<polygon id="E_1_" points="58.534,22.356 58.534,19.667 51.659,19.667 51.659,16.24 57.344,16.24 57.344,13.613 51.659,13.613 
				51.659,10.822 58.062,10.822 58.062,8.134 48.457,8.134 48.457,22.356 58.534,22.356 			"/>
		</defs>
		<clipPath id="E_2_">
			<use xlink:href="#E_1_"  overflow="visible"/>
		</clipPath>
		<rect x="47.936" y="7.35" clip-path="url(#E_2_)" fill="#698941" width="3.742" height="15.311"/>
	</g>
	<polygon id="T_3_" fill="#698941" points="34.577,8.134 34.577,10.863 38.866,10.863 38.866,22.356 42.068,22.356 42.068,10.863 
		46.357,10.863 46.357,8.134 34.577,8.134 	"/>
	<g>
		<defs>
			<polygon id="T_2_" points="34.577,8.134 34.577,10.863 38.866,10.863 38.866,22.356 42.068,22.356 42.068,10.863 46.357,10.863 
				46.357,8.134 34.577,8.134 			"/>
		</defs>
		<clipPath id="T_1_">
			<use xlink:href="#T_2_"  overflow="visible"/>
		</clipPath>
		<rect x="37.791" y="10.863" clip-path="url(#T_1_)" fill="#617E3F" width="4.849" height="12.404"/>
	</g>
</g>
</svg>
