<?xml version="1.0" encoding="utf-8"?>
<!-- Generator: Adobe Illustrator 14.0.0, SVG Export Plug-In . SVG Version: 6.00 Build 43363)  -->
<!DOCTYPE svg PUBLIC "-//W3C//DTD SVG 1.1//EN" "http://www.w3.org/Graphics/SVG/1.1/DTD/svg11.dtd">
<svg version="1.1" xmlns="http://www.w3.org/2000/svg" xmlns:xlink="http://www.w3.org/1999/xlink" x="0px" y="0px"
	 width="121.279px" height="30px" viewBox="0 0 121.279 30" enable-background="new 0 0 121.279 30" xml:space="preserve">
<g id="Logo">
	<polygon fill="#748925" points="20.212,3.256 13.375,27.186 40.723,27.186 	"/>
	<g>
		<defs>
			<polygon id="SVGID_1_" points="20.212,3.256 13.375,27.186 40.723,27.186 			"/>
		</defs>
		<clipPath id="SVGID_2_">
			<use xlink:href="#SVGID_1_"  overflow="visible"/>
		</clipPath>
		<polyline clip-path="url(#SVGID_2_)" fill="#677225" points="-0.3,27.186 32.82,17.144 40.723,27.186 -0.3,27.186 		"/>
		<polyline opacity="0.34" clip-path="url(#SVGID_2_)" fill="#9CA82E" points="20.212,3.256 20.212,27.186 40.723,27.186 
			20.212,3.256 		"/>
	</g>
	<polygon fill="#748925" points="14.229,12.476 4.829,27.186 10.811,27.186 16.12,13.511 	"/>
	<g>
		<defs>
			<polygon id="SVGID_3_" points="14.229,12.476 4.829,27.186 10.811,27.186 16.12,13.511 			"/>
		</defs>
		<clipPath id="SVGID_4_">
			<use xlink:href="#SVGID_3_"  overflow="visible"/>
		</clipPath>
		<polyline clip-path="url(#SVGID_4_)" fill="#677225" points="-0.3,27.186 32.82,17.144 40.723,27.186 -0.3,27.186 		"/>
	</g>
	<polygon fill="#748925" points="8.13,17.373 -0.3,27.186 3.12,27.186 9.758,17.892 	"/>
	<g>
		<defs>
			<polygon id="SVGID_5_" points="8.13,17.373 -0.3,27.186 3.12,27.186 9.758,17.892 			"/>
		</defs>
		<clipPath id="SVGID_6_">
			<use xlink:href="#SVGID_5_"  overflow="visible"/>
		</clipPath>
		<polyline clip-path="url(#SVGID_6_)" fill="#677225" points="-0.3,27.186 32.82,17.144 40.723,27.186 -0.3,27.186 		"/>
	</g>
</g>
<g id="Terrain">
	<g id="Layer_9">
		<path id="N" fill="#677225" d="M121.279,22.525V8.651h-3.103v8.187c-0.481-0.72-0.995-1.472-1.543-2.25
			c-0.548-0.783-1.098-1.537-1.651-2.264c-0.555-0.727-1.099-1.412-1.632-2.052c-0.533-0.641-1.021-1.181-1.461-1.621h-2.543v13.875
			h3.082v-9.09c1.176,1.375,2.282,2.836,3.324,4.384c1.041,1.548,2.01,3.117,2.902,4.706H121.279L121.279,22.525z"/>
		<g>
			<defs>
				<path id="N_1_" d="M121.279,22.525V8.651h-3.103v8.187c-0.481-0.72-0.995-1.472-1.543-2.25
					c-0.548-0.783-1.098-1.537-1.651-2.264c-0.555-0.727-1.099-1.412-1.632-2.052c-0.533-0.641-1.021-1.181-1.461-1.621h-2.543
					v13.875h3.082v-9.09c1.176,1.375,2.282,2.836,3.324,4.384c1.041,1.548,2.01,3.117,2.902,4.706H121.279L121.279,22.525z"/>
			</defs>
			<clipPath id="N_2_">
				<use xlink:href="#N_1_"  overflow="visible"/>
			</clipPath>
			<polygon clip-path="url(#N_2_)" fill="#748925" points="109.346,8.651 112.428,13.435 118.59,22.805 121.279,22.616 
				118.177,16.838 112.554,8.426 			"/>
		</g>
	</g>
	<g id="Layer_8">
		<polygon id="I_1_" fill="#748925" points="103.698,22.525 106.821,22.525 106.821,8.651 103.698,8.651 103.698,22.525 		"/>
	</g>
	<g id="Layer_7">
		<path id="A" fill="#748925" d="M102.225,22.525c-0.524-1.496-1.02-2.877-1.487-4.146c-0.471-1.268-0.93-2.462-1.379-3.583
			s-0.896-2.186-1.337-3.193c-0.443-1.008-0.893-1.992-1.348-2.953h-2.961c-0.469,0.96-0.922,1.945-1.355,2.953
			c-0.436,1.008-0.877,2.072-1.325,3.193c-0.449,1.121-0.907,2.315-1.376,3.583c-0.469,1.269-0.964,2.649-1.485,4.146h3.243
			c0.152-0.48,0.315-0.973,0.491-1.481c0.175-0.509,0.352-1.017,0.527-1.523h5.418c0.177,0.505,0.354,1.01,0.531,1.52
			c0.178,0.507,0.343,1.002,0.497,1.485H102.225L102.225,22.525z M95.456,12.608c0.135,0.347,0.291,0.748,0.471,1.202
			c0.18,0.455,0.368,0.956,0.567,1.504c0.199,0.548,0.404,1.123,0.618,1.725h-3.97c0.22-0.599,0.435-1.173,0.646-1.719
			c0.211-0.547,0.403-1.047,0.575-1.501c0.172-0.456,0.323-0.856,0.458-1.203c0.136-0.346,0.236-0.621,0.306-0.822
			C95.212,11.991,95.319,12.262,95.456,12.608L95.456,12.608z"/>
		<g>
			<defs>
				<path id="A_1_" d="M102.225,22.525c-0.524-1.496-1.02-2.877-1.487-4.146c-0.471-1.268-0.93-2.462-1.379-3.583
					s-0.896-2.186-1.337-3.193c-0.443-1.008-0.893-1.992-1.348-2.953h-2.961c-0.469,0.96-0.922,1.945-1.355,2.953
					c-0.436,1.008-0.877,2.072-1.325,3.193c-0.449,1.121-0.907,2.315-1.376,3.583c-0.469,1.269-0.964,2.649-1.485,4.146h3.243
					c0.152-0.48,0.315-0.973,0.491-1.481c0.175-0.509,0.352-1.017,0.527-1.523h5.418c0.177,0.505,0.354,1.01,0.531,1.52
					c0.178,0.507,0.343,1.002,0.497,1.485H102.225L102.225,22.525z M95.456,12.608c0.135,0.347,0.291,0.748,0.471,1.202
					c0.18,0.455,0.368,0.956,0.567,1.504c0.199,0.548,0.404,1.123,0.618,1.725h-3.97c0.22-0.599,0.435-1.173,0.646-1.719
					c0.211-0.547,0.403-1.047,0.575-1.501c0.172-0.456,0.323-0.856,0.458-1.203c0.136-0.346,0.236-0.621,0.306-0.822
					C95.212,11.991,95.319,12.262,95.456,12.608L95.456,12.608z"/>
			</defs>
			<clipPath id="A_2_">
				<use xlink:href="#A_1_"  overflow="visible"/>
			</clipPath>
			<rect x="91.989" y="16.857" clip-path="url(#A_2_)" fill="#5A6020" width="6.17" height="2.744"/>
			<polygon clip-path="url(#A_2_)" fill="#677225" points="93.599,8.49 87.76,22.525 91.415,22.525 92.433,19.521 93.142,17.039 
				95.128,11.793 96.754,8.49 			"/>
			<path clip-path="url(#A_2_)" fill="#748925" d="M93.599,8.49l1.528,3.304l1.984,5.246l0.739,2.481l1.028,3.005h3.346
				c0,0-4.361-12.862-5.551-13.875L93.599,8.49z"/>
		</g>
	</g>
	<g id="Layer_6">
		<path id="R_7_" fill="#677225" d="M77.754,8.57c-0.729,0.054-1.433,0.147-2.113,0.281v13.675h3.123V17.46h1.541
			c0.268,0.319,0.537,0.677,0.804,1.07c0.269,0.394,0.54,0.812,0.814,1.251c0.274,0.441,0.543,0.895,0.804,1.362
			s0.519,0.928,0.774,1.382h3.49c-0.24-0.508-0.5-1.024-0.78-1.553c-0.28-0.526-0.569-1.034-0.87-1.521
			c-0.3-0.487-0.604-0.955-0.911-1.402c-0.308-0.446-0.601-0.844-0.882-1.19c0.843-0.347,1.485-0.824,1.932-1.433
			c0.447-0.606,0.671-1.398,0.671-2.373c0-1.561-0.554-2.712-1.661-3.453S81.787,8.49,79.704,8.49
			C79.13,8.49,78.479,8.518,77.754,8.57L77.754,8.57z M82.156,11.583c0.514,0.287,0.771,0.771,0.771,1.451
			c0,0.708-0.254,1.208-0.761,1.502c-0.508,0.294-1.349,0.44-2.522,0.44h-0.881v-3.764c0.16-0.013,0.329-0.026,0.51-0.041
			c0.181-0.013,0.383-0.02,0.611-0.02C80.885,11.153,81.642,11.296,82.156,11.583L82.156,11.583z"/>
		<g>
			<defs>
				<path id="R_6_" d="M77.754,8.57c-0.729,0.054-1.433,0.147-2.113,0.281v13.675h3.123V17.46h1.541
					c0.268,0.319,0.537,0.677,0.804,1.07c0.269,0.394,0.54,0.812,0.814,1.251c0.274,0.441,0.543,0.895,0.804,1.362
					s0.519,0.928,0.774,1.382h3.49c-0.24-0.508-0.5-1.024-0.78-1.553c-0.28-0.526-0.569-1.034-0.87-1.521
					c-0.3-0.487-0.604-0.955-0.911-1.402c-0.308-0.446-0.601-0.844-0.882-1.19c0.843-0.347,1.485-0.824,1.932-1.433
					c0.447-0.606,0.671-1.398,0.671-2.373c0-1.561-0.554-2.712-1.661-3.453S81.787,8.49,79.704,8.49
					C79.13,8.49,78.479,8.518,77.754,8.57L77.754,8.57z M82.156,11.583c0.514,0.287,0.771,0.771,0.771,1.451
					c0,0.708-0.254,1.208-0.761,1.502c-0.508,0.294-1.349,0.44-2.522,0.44h-0.881v-3.764c0.16-0.013,0.329-0.026,0.51-0.041
					c0.181-0.013,0.383-0.02,0.611-0.02C80.885,11.153,81.642,11.296,82.156,11.583L82.156,11.583z"/>
			</defs>
			<clipPath id="R_1_">
				<use xlink:href="#R_6_"  overflow="visible"/>
			</clipPath>
			<path clip-path="url(#R_1_)" fill="#5A6020" d="M83.427,22.607h3.676c0,0-2.716-5.569-3.538-5.869c0,0-2.22,0.6-3.412,0.659
				L83.427,22.607z"/>
			<path clip-path="url(#R_1_)" fill="#748925" d="M75.64,8.851c0,0,10.782-2.379,10.77,3.997c0.089,5.323-7.646,4.613-7.646,4.613
				v-2.483c0,0,4.354,0.167,4.038-2.292c-0.248-1.937-4.038-1.472-4.038-1.472s-3.123,0.366-3.123,0.538"/>
		</g>
	</g>
	<g id="Layer_5">
		<path id="R_4_" fill="#677225" d="M64.692,8.57c-0.729,0.054-1.431,0.147-2.111,0.281v13.675h3.122V17.46h1.542
			c0.268,0.319,0.536,0.677,0.805,1.07c0.267,0.394,0.538,0.812,0.813,1.251c0.273,0.441,0.541,0.895,0.804,1.362
			c0.261,0.468,0.519,0.928,0.773,1.382h3.49c-0.238-0.508-0.499-1.024-0.779-1.553c-0.28-0.526-0.57-1.034-0.871-1.521
			c-0.3-0.487-0.604-0.955-0.909-1.402c-0.309-0.446-0.603-0.844-0.883-1.19c0.84-0.347,1.485-0.824,1.932-1.433
			c0.447-0.606,0.671-1.398,0.671-2.373c0-1.561-0.555-2.712-1.661-3.453C70.322,8.86,68.727,8.49,66.643,8.49
			C66.07,8.49,65.42,8.518,64.692,8.57L64.692,8.57z M69.097,11.583c0.513,0.287,0.771,0.771,0.771,1.451
			c0,0.708-0.254,1.208-0.761,1.502c-0.508,0.294-1.349,0.44-2.523,0.44h-0.881v-3.764c0.161-0.013,0.33-0.026,0.511-0.041
			c0.181-0.013,0.383-0.02,0.61-0.02C67.826,11.153,68.583,11.296,69.097,11.583L69.097,11.583z"/>
		<g>
			<defs>
				<path id="R_3_" d="M64.692,8.57c-0.729,0.054-1.431,0.147-2.111,0.281v13.675h3.122V17.46h1.542
					c0.268,0.319,0.536,0.677,0.805,1.07c0.267,0.394,0.538,0.812,0.813,1.251c0.273,0.441,0.541,0.895,0.804,1.362
					c0.261,0.468,0.519,0.928,0.773,1.382h3.49c-0.238-0.508-0.499-1.024-0.779-1.553c-0.28-0.526-0.57-1.034-0.871-1.521
					c-0.3-0.487-0.604-0.955-0.909-1.402c-0.309-0.446-0.603-0.844-0.883-1.19c0.84-0.347,1.485-0.824,1.932-1.433
					c0.447-0.606,0.671-1.398,0.671-2.373c0-1.561-0.555-2.712-1.661-3.453C70.322,8.86,68.727,8.49,66.643,8.49
					C66.07,8.49,65.42,8.518,64.692,8.57L64.692,8.57z M69.097,11.583c0.513,0.287,0.771,0.771,0.771,1.451
					c0,0.708-0.254,1.208-0.761,1.502c-0.508,0.294-1.349,0.44-2.523,0.44h-0.881v-3.764c0.161-0.013,0.33-0.026,0.511-0.041
					c0.181-0.013,0.383-0.02,0.61-0.02C67.826,11.153,68.583,11.296,69.097,11.583L69.097,11.583z"/>
			</defs>
			<clipPath id="R_2_">
				<use xlink:href="#R_3_"  overflow="visible"/>
			</clipPath>
			<path clip-path="url(#R_2_)" fill="#5A6020" d="M70.367,22.607h3.677c0,0-2.717-5.569-3.538-5.869c0,0-2.22,0.6-3.412,0.659
				L70.367,22.607z"/>
			<path clip-path="url(#R_2_)" fill="#748925" d="M62.581,8.851c0,0,10.782-2.379,10.769,3.997c0.09,5.323-7.646,4.613-7.646,4.613
				v-2.483c0,0,4.355,0.167,4.039-2.292c-0.248-1.937-4.039-1.472-4.039-1.472s-3.122,0.366-3.122,0.538"/>
		</g>
	</g>
	<g id="Layer_4_1_">
		<polygon id="E_3_" fill="#677225" points="60.508,22.525 60.508,19.901 53.801,19.901 53.801,16.559 59.346,16.559 59.346,13.997 
			53.801,13.997 53.801,11.273 60.048,11.273 60.048,8.651 50.677,8.651 50.677,22.525 60.508,22.525 		"/>
		<g>
			<defs>
				<polygon id="E_2_" points="60.508,22.525 60.508,19.901 53.801,19.901 53.801,16.559 59.346,16.559 59.346,13.997 
					53.801,13.997 53.801,11.273 60.048,11.273 60.048,8.651 50.677,8.651 50.677,22.525 60.508,22.525 				"/>
			</defs>
			<clipPath id="E_1_">
				<use xlink:href="#E_2_"  overflow="visible"/>
			</clipPath>
			<rect x="50.17" y="7.885" clip-path="url(#E_1_)" fill="#748925" width="3.65" height="14.938"/>
		</g>
	</g>
	<g id="Layer_3_1_">
		<polygon id="T" fill="#748925" points="37.136,8.651 37.136,11.313 41.322,11.313 41.322,22.525 44.444,22.525 44.444,11.313 
			48.628,11.313 48.628,8.651 37.136,8.651 		"/>
		<g>
			<defs>
				<polygon id="T_1_" points="37.136,8.651 37.136,11.313 41.322,11.313 41.322,22.525 44.444,22.525 44.444,11.313 48.628,11.313 
					48.628,8.651 37.136,8.651 				"/>
			</defs>
			<clipPath id="T_2_">
				<use xlink:href="#T_1_"  overflow="visible"/>
			</clipPath>
			<rect x="40.272" y="11.313" clip-path="url(#T_2_)" fill="#677225" width="4.73" height="12.101"/>
		</g>
	</g>
</g>
</svg>
